<svg width="444" height="32" viewBox="0 0 444 32" fill="none" xmlns="http://www.w3.org/2000/svg">
<g filter="url(#filter0_d_44_18)">
<path d="M17.16 10.504H19.464V17.056C18.632 17.744 17.664 18.272 16.56 18.64C15.456 19.008 14.304 19.192 13.104 19.192C11.408 19.192 9.88 18.824 8.52 18.088C7.16 17.336 6.088 16.312 5.304 15.016C4.536 13.704 4.152 12.232 4.152 10.6C4.152 8.968 4.536 7.496 5.304 6.184C6.088 4.872 7.16 3.848 8.52 3.112C9.896 2.376 11.44 2.008 13.152 2.008C14.496 2.008 15.712 2.232 16.8 2.68C17.904 3.112 18.84 3.752 19.608 4.6L18.12 6.088C16.776 4.792 15.152 4.144 13.248 4.144C11.968 4.144 10.816 4.424 9.792 4.984C8.784 5.528 7.992 6.296 7.416 7.288C6.84 8.264 6.552 9.368 6.552 10.6C6.552 11.816 6.84 12.92 7.416 13.912C7.992 14.888 8.784 15.656 9.792 16.216C10.816 16.776 11.96 17.056 13.224 17.056C14.728 17.056 16.04 16.696 17.16 15.976V10.504ZM28.3551 6.16C30.1151 6.16 31.4591 6.592 32.3871 7.456C33.3311 8.32 33.8031 9.608 33.8031 11.32V19H31.6191V17.32C31.2351 17.912 30.6831 18.368 29.9631 18.688C29.2591 18.992 28.4191 19.144 27.4431 19.144C26.0191 19.144 24.8751 18.8 24.0111 18.112C23.1631 17.424 22.7391 16.52 22.7391 15.4C22.7391 14.28 23.1471 13.384 23.9631 12.712C24.7791 12.024 26.0751 11.68 27.8511 11.68H31.4991V11.224C31.4991 10.232 31.2111 9.472 30.6351 8.944C30.0591 8.416 29.2111 8.152 28.0911 8.152C27.3391 8.152 26.6031 8.28 25.8831 8.536C25.1631 8.776 24.5551 9.104 24.0591 9.52L23.0991 7.792C23.7551 7.264 24.5391 6.864 25.4511 6.592C26.3631 6.304 27.3311 6.16 28.3551 6.16ZM27.8271 17.368C28.7071 17.368 29.4671 17.176 30.1071 16.792C30.7471 16.392 31.2111 15.832 31.4991 15.112V13.336H27.9471C25.9951 13.336 25.0191 13.992 25.0191 15.304C25.0191 15.944 25.2671 16.448 25.7631 16.816C26.2591 17.184 26.9471 17.368 27.8271 17.368ZM53.9788 6.16C55.5788 6.16 56.8428 6.624 57.7708 7.552C58.7148 8.48 59.1868 9.856 59.1868 11.68V19H56.8828V11.944C56.8828 10.712 56.5948 9.784 56.0188 9.16C55.4588 8.536 54.6508 8.224 53.5948 8.224C52.4268 8.224 51.4988 8.592 50.8108 9.328C50.1228 10.048 49.7788 11.088 49.7788 12.448V19H47.4748V11.944C47.4748 10.712 47.1868 9.784 46.6108 9.16C46.0508 8.536 45.2428 8.224 44.1868 8.224C43.0188 8.224 42.0908 8.592 41.4028 9.328C40.7148 10.048 40.3708 11.088 40.3708 12.448V19H38.0668V6.28H40.2748V8.176C40.7388 7.52 41.3468 7.024 42.0988 6.688C42.8508 6.336 43.7068 6.16 44.6668 6.16C45.6588 6.16 46.5388 6.36 47.3068 6.76C48.0748 7.16 48.6668 7.744 49.0828 8.512C49.5628 7.776 50.2268 7.2 51.0748 6.784C51.9388 6.368 52.9068 6.16 53.9788 6.16ZM74.9925 12.712C74.9925 12.888 74.9765 13.12 74.9445 13.408H64.6245C64.7685 14.528 65.2565 15.432 66.0885 16.12C66.9365 16.792 67.9845 17.128 69.2325 17.128C70.7525 17.128 71.9765 16.616 72.9045 15.592L74.1765 17.08C73.6005 17.752 72.8805 18.264 72.0165 18.616C71.1685 18.968 70.2165 19.144 69.1605 19.144C67.8165 19.144 66.6245 18.872 65.5845 18.328C64.5445 17.768 63.7365 16.992 63.1605 16C62.6005 15.008 62.3205 13.888 62.3205 12.64C62.3205 11.408 62.5925 10.296 63.1365 9.304C63.6965 8.312 64.4565 7.544 65.4165 7C66.3925 6.44 67.4885 6.16 68.7045 6.16C69.9205 6.16 71.0005 6.44 71.9445 7C72.9045 7.544 73.6485 8.312 74.1765 9.304C74.7205 10.296 74.9925 11.432 74.9925 12.712ZM68.7045 8.104C67.6005 8.104 66.6725 8.44 65.9205 9.112C65.1845 9.784 64.7525 10.664 64.6245 11.752H72.7845C72.6565 10.68 72.2165 9.808 71.4645 9.136C70.7285 8.448 69.8085 8.104 68.7045 8.104ZM84.9731 2.2H92.0531C93.8291 2.2 95.4051 2.552 96.7811 3.256C98.1571 3.96 99.2211 4.952 99.9731 6.232C100.741 7.496 101.125 8.952 101.125 10.6C101.125 12.248 100.741 13.712 99.9731 14.992C99.2211 16.256 98.1571 17.24 96.7811 17.944C95.4051 18.648 93.8291 19 92.0531 19H84.9731V2.2ZM91.9091 16.912C93.2691 16.912 94.4611 16.648 95.4851 16.12C96.5251 15.592 97.3251 14.856 97.8851 13.912C98.4451 12.952 98.7251 11.848 98.7251 10.6C98.7251 9.352 98.4451 8.256 97.8851 7.312C97.3251 6.352 96.5251 5.608 95.4851 5.08C94.4611 4.552 93.2691 4.288 91.9091 4.288H87.3731V16.912H91.9091ZM115.961 12.712C115.961 12.888 115.945 13.12 115.913 13.408H105.593C105.737 14.528 106.225 15.432 107.057 16.12C107.905 16.792 108.953 17.128 110.201 17.128C111.721 17.128 112.945 16.616 113.873 15.592L115.145 17.08C114.569 17.752 113.849 18.264 112.985 18.616C112.137 18.968 111.185 19.144 110.129 19.144C108.785 19.144 107.593 18.872 106.553 18.328C105.513 17.768 104.705 16.992 104.129 16C103.569 15.008 103.289 13.888 103.289 12.64C103.289 11.408 103.561 10.296 104.105 9.304C104.665 8.312 105.425 7.544 106.385 7C107.361 6.44 108.457 6.16 109.673 6.16C110.889 6.16 111.969 6.44 112.913 7C113.873 7.544 114.617 8.312 115.145 9.304C115.689 10.296 115.961 11.432 115.961 12.712ZM109.673 8.104C108.569 8.104 107.641 8.44 106.889 9.112C106.153 9.784 105.721 10.664 105.593 11.752H113.753C113.625 10.68 113.185 9.808 112.433 9.136C111.697 8.448 110.777 8.104 109.673 8.104ZM130.182 6.28L124.614 19H122.262L116.694 6.28H119.094L123.462 16.48L127.926 6.28H130.182ZM143.477 12.712C143.477 12.888 143.461 13.12 143.429 13.408H133.109C133.253 14.528 133.741 15.432 134.573 16.12C135.421 16.792 136.469 17.128 137.717 17.128C139.237 17.128 140.461 16.616 141.389 15.592L142.661 17.08C142.085 17.752 141.365 18.264 140.501 18.616C139.653 18.968 138.701 19.144 137.645 19.144C136.301 19.144 135.109 18.872 134.069 18.328C133.029 17.768 132.221 16.992 131.645 16C131.085 15.008 130.805 13.888 130.805 12.64C130.805 11.408 131.077 10.296 131.621 9.304C132.181 8.312 132.941 7.544 133.901 7C134.877 6.44 135.973 6.16 137.189 6.16C138.405 6.16 139.485 6.44 140.429 7C141.389 7.544 142.133 8.312 142.661 9.304C143.205 10.296 143.477 11.432 143.477 12.712ZM137.189 8.104C136.085 8.104 135.157 8.44 134.405 9.112C133.669 9.784 133.237 10.664 133.109 11.752H141.269C141.141 10.68 140.701 9.808 139.949 9.136C139.213 8.448 138.293 8.104 137.189 8.104ZM146.676 1.192H148.98V19H146.676V1.192ZM158.827 19.144C157.563 19.144 156.427 18.864 155.419 18.304C154.411 17.744 153.619 16.976 153.043 16C152.483 15.008 152.203 13.888 152.203 12.64C152.203 11.392 152.483 10.28 153.043 9.304C153.619 8.312 154.411 7.544 155.419 7C156.427 6.44 157.563 6.16 158.827 6.16C160.091 6.16 161.219 6.44 162.211 7C163.219 7.544 164.003 8.312 164.563 9.304C165.139 10.28 165.427 11.392 165.427 12.64C165.427 13.888 165.139 15.008 164.563 16C164.003 16.976 163.219 17.744 162.211 18.304C161.219 18.864 160.091 19.144 158.827 19.144ZM158.827 17.128C159.643 17.128 160.371 16.944 161.011 16.576C161.667 16.192 162.179 15.664 162.547 14.992C162.915 14.304 163.099 13.52 163.099 12.64C163.099 11.76 162.915 10.984 162.547 10.312C162.179 9.624 161.667 9.096 161.011 8.728C160.371 8.36 159.643 8.176 158.827 8.176C158.011 8.176 157.275 8.36 156.619 8.728C155.979 9.096 155.467 9.624 155.083 10.312C154.715 10.984 154.531 11.76 154.531 12.64C154.531 13.52 154.715 14.304 155.083 14.992C155.467 15.664 155.979 16.192 156.619 16.576C157.275 16.944 158.011 17.128 158.827 17.128ZM175.358 6.16C176.59 6.16 177.694 6.432 178.67 6.976C179.646 7.52 180.406 8.28 180.95 9.256C181.51 10.232 181.79 11.36 181.79 12.64C181.79 13.92 181.51 15.056 180.95 16.048C180.406 17.024 179.646 17.784 178.67 18.328C177.694 18.872 176.59 19.144 175.358 19.144C174.446 19.144 173.606 18.968 172.838 18.616C172.086 18.264 171.446 17.752 170.918 17.08V23.656H168.614V6.28H170.822V8.296C171.334 7.592 171.982 7.064 172.766 6.712C173.55 6.344 174.414 6.16 175.358 6.16ZM175.166 17.128C175.982 17.128 176.71 16.944 177.35 16.576C178.006 16.192 178.518 15.664 178.886 14.992C179.27 14.304 179.462 13.52 179.462 12.64C179.462 11.76 179.27 10.984 178.886 10.312C178.518 9.624 178.006 9.096 177.35 8.728C176.71 8.36 175.982 8.176 175.166 8.176C174.366 8.176 173.638 8.368 172.982 8.752C172.342 9.12 171.83 9.64 171.446 10.312C171.078 10.984 170.894 11.76 170.894 12.64C170.894 13.52 171.078 14.304 171.446 14.992C171.814 15.664 172.326 16.192 172.982 16.576C173.638 16.944 174.366 17.128 175.166 17.128ZM196.469 12.712C196.469 12.888 196.453 13.12 196.421 13.408H186.101C186.245 14.528 186.733 15.432 187.565 16.12C188.413 16.792 189.461 17.128 190.709 17.128C192.229 17.128 193.453 16.616 194.381 15.592L195.653 17.08C195.077 17.752 194.357 18.264 193.493 18.616C192.645 18.968 191.693 19.144 190.637 19.144C189.293 19.144 188.101 18.872 187.061 18.328C186.021 17.768 185.213 16.992 184.637 16C184.077 15.008 183.797 13.888 183.797 12.64C183.797 11.408 184.069 10.296 184.613 9.304C185.173 8.312 185.933 7.544 186.893 7C187.869 6.44 188.965 6.16 190.181 6.16C191.397 6.16 192.477 6.44 193.421 7C194.381 7.544 195.125 8.312 195.653 9.304C196.197 10.296 196.469 11.432 196.469 12.712ZM190.181 8.104C189.077 8.104 188.149 8.44 187.397 9.112C186.661 9.784 186.229 10.664 186.101 11.752H194.261C194.133 10.68 193.693 9.808 192.941 9.136C192.205 8.448 191.285 8.104 190.181 8.104ZM201.876 8.416C202.276 7.68 202.868 7.12 203.652 6.736C204.436 6.352 205.388 6.16 206.508 6.16V8.392C206.38 8.376 206.204 8.368 205.98 8.368C204.732 8.368 203.748 8.744 203.028 9.496C202.324 10.232 201.972 11.288 201.972 12.664V19H199.668V6.28H201.876V8.416ZM230.515 19L226.843 14.128L223.123 19H220.555L225.571 12.496L220.795 6.28H223.363L226.867 10.864L230.347 6.28H232.867L228.067 12.496L233.131 19H230.515ZM252.208 4.288H246.448V2.2H260.344V4.288H254.584V19H252.208V4.288ZM272.805 12.712C272.805 12.888 272.789 13.12 272.757 13.408H262.437C262.581 14.528 263.069 15.432 263.901 16.12C264.749 16.792 265.797 17.128 267.045 17.128C268.565 17.128 269.789 16.616 270.717 15.592L271.989 17.08C271.413 17.752 270.693 18.264 269.829 18.616C268.981 18.968 268.029 19.144 266.973 19.144C265.629 19.144 264.437 18.872 263.397 18.328C262.357 17.768 261.549 16.992 260.973 16C260.413 15.008 260.133 13.888 260.133 12.64C260.133 11.408 260.405 10.296 260.949 9.304C261.509 8.312 262.269 7.544 263.229 7C264.205 6.44 265.301 6.16 266.517 6.16C267.733 6.16 268.813 6.44 269.757 7C270.717 7.544 271.461 8.312 271.989 9.304C272.533 10.296 272.805 11.432 272.805 12.712ZM266.517 8.104C265.413 8.104 264.485 8.44 263.733 9.112C262.997 9.784 262.565 10.664 262.437 11.752H270.597C270.469 10.68 270.029 9.808 269.277 9.136C268.541 8.448 267.621 8.104 266.517 8.104ZM281.548 19.144C280.252 19.144 279.092 18.864 278.068 18.304C277.06 17.744 276.268 16.976 275.692 16C275.116 15.008 274.828 13.888 274.828 12.64C274.828 11.392 275.116 10.28 275.692 9.304C276.268 8.312 277.06 7.544 278.068 7C279.092 6.44 280.252 6.16 281.548 6.16C282.7 6.16 283.724 6.392 284.62 6.856C285.532 7.32 286.236 7.992 286.732 8.872L284.98 10C284.58 9.392 284.084 8.936 283.492 8.632C282.9 8.328 282.244 8.176 281.524 8.176C280.692 8.176 279.94 8.36 279.268 8.728C278.612 9.096 278.092 9.624 277.708 10.312C277.34 10.984 277.156 11.76 277.156 12.64C277.156 13.536 277.34 14.328 277.708 15.016C278.092 15.688 278.612 16.208 279.268 16.576C279.94 16.944 280.692 17.128 281.524 17.128C282.244 17.128 282.9 16.976 283.492 16.672C284.084 16.368 284.58 15.912 284.98 15.304L286.732 16.408C286.236 17.288 285.532 17.968 284.62 18.448C283.724 18.912 282.7 19.144 281.548 19.144ZM296.343 6.16C297.959 6.16 299.239 6.632 300.183 7.576C301.143 8.504 301.623 9.872 301.623 11.68V19H299.319V11.944C299.319 10.712 299.023 9.784 298.431 9.16C297.839 8.536 296.991 8.224 295.887 8.224C294.639 8.224 293.655 8.592 292.935 9.328C292.215 10.048 291.855 11.088 291.855 12.448V19H289.551V1.192H291.855V8.08C292.335 7.472 292.959 7 293.727 6.664C294.511 6.328 295.383 6.16 296.343 6.16ZM324.86 16.912V19H312.668V2.2H324.524V4.288H315.068V9.448H323.492V11.488H315.068V16.912H324.86ZM335.203 6.16C336.819 6.16 338.099 6.632 339.043 7.576C340.003 8.504 340.483 9.872 340.483 11.68V19H338.179V11.944C338.179 10.712 337.883 9.784 337.291 9.16C336.699 8.536 335.851 8.224 334.747 8.224C333.499 8.224 332.515 8.592 331.795 9.328C331.075 10.048 330.715 11.088 330.715 12.448V19H328.411V6.28H330.619V8.2C331.083 7.544 331.707 7.04 332.491 6.688C333.291 6.336 334.195 6.16 335.203 6.16ZM351.899 18.256C351.563 18.544 351.147 18.768 350.651 18.928C350.155 19.072 349.643 19.144 349.115 19.144C347.835 19.144 346.843 18.8 346.139 18.112C345.435 17.424 345.083 16.44 345.083 15.16V8.176H342.923V6.28H345.083V3.496H347.387V6.28H351.035V8.176H347.387V15.064C347.387 15.752 347.555 16.28 347.891 16.648C348.243 17.016 348.739 17.2 349.379 17.2C350.083 17.2 350.683 17 351.179 16.6L351.899 18.256ZM361.476 6.16C363.092 6.16 364.372 6.632 365.316 7.576C366.276 8.504 366.756 9.872 366.756 11.68V19H364.452V11.944C364.452 10.712 364.156 9.784 363.564 9.16C362.972 8.536 362.124 8.224 361.02 8.224C359.772 8.224 358.788 8.592 358.068 9.328C357.348 10.048 356.988 11.088 356.988 12.448V19H354.684V1.192H356.988V8.08C357.468 7.472 358.092 7 358.86 6.664C359.644 6.328 360.516 6.16 361.476 6.16ZM382.876 6.28V19H380.692V17.08C380.228 17.736 379.612 18.248 378.844 18.616C378.092 18.968 377.268 19.144 376.372 19.144C374.676 19.144 373.34 18.68 372.364 17.752C371.388 16.808 370.9 15.424 370.9 13.6V6.28H373.204V13.336C373.204 14.568 373.5 15.504 374.092 16.144C374.684 16.768 375.532 17.08 376.636 17.08C377.852 17.08 378.812 16.712 379.516 15.976C380.22 15.24 380.572 14.2 380.572 12.856V6.28H382.876ZM390.91 19.144C389.87 19.144 388.87 19.008 387.91 18.736C386.95 18.448 386.198 18.088 385.654 17.656L386.614 15.832C387.174 16.232 387.854 16.552 388.654 16.792C389.454 17.032 390.262 17.152 391.078 17.152C393.094 17.152 394.102 16.576 394.102 15.424C394.102 15.04 393.966 14.736 393.694 14.512C393.422 14.288 393.078 14.128 392.662 14.032C392.262 13.92 391.686 13.8 390.934 13.672C389.91 13.512 389.07 13.328 388.414 13.12C387.774 12.912 387.222 12.56 386.758 12.064C386.294 11.568 386.062 10.872 386.062 9.976C386.062 8.824 386.542 7.904 387.502 7.216C388.462 6.512 389.75 6.16 391.366 6.16C392.214 6.16 393.062 6.264 393.91 6.472C394.758 6.68 395.454 6.96 395.998 7.312L395.014 9.136C393.974 8.464 392.75 8.128 391.342 8.128C390.366 8.128 389.622 8.288 389.11 8.608C388.598 8.928 388.342 9.352 388.342 9.88C388.342 10.296 388.486 10.624 388.774 10.864C389.062 11.104 389.414 11.28 389.83 11.392C390.262 11.504 390.862 11.632 391.63 11.776C392.654 11.952 393.478 12.144 394.102 12.352C394.742 12.544 395.286 12.88 395.734 13.36C396.182 13.84 396.406 14.512 396.406 15.376C396.406 16.528 395.91 17.448 394.918 18.136C393.942 18.808 392.606 19.144 390.91 19.144ZM399.286 6.28H401.59V19H399.286V6.28ZM400.438 3.832C399.99 3.832 399.614 3.688 399.31 3.4C399.022 3.112 398.878 2.76 398.878 2.344C398.878 1.928 399.022 1.576 399.31 1.288C399.614 0.983999 399.99 0.831999 400.438 0.831999C400.886 0.831999 401.254 0.975999 401.542 1.264C401.846 1.536 401.998 1.88 401.998 2.296C401.998 2.728 401.846 3.096 401.542 3.4C401.254 3.688 400.886 3.832 400.438 3.832ZM410.621 6.16C412.381 6.16 413.725 6.592 414.653 7.456C415.597 8.32 416.069 9.608 416.069 11.32V19H413.885V17.32C413.501 17.912 412.949 18.368 412.229 18.688C411.525 18.992 410.685 19.144 409.709 19.144C408.285 19.144 407.141 18.8 406.277 18.112C405.429 17.424 405.005 16.52 405.005 15.4C405.005 14.28 405.413 13.384 406.229 12.712C407.045 12.024 408.341 11.68 410.117 11.68H413.765V11.224C413.765 10.232 413.477 9.472 412.901 8.944C412.325 8.416 411.477 8.152 410.357 8.152C409.605 8.152 408.869 8.28 408.149 8.536C407.429 8.776 406.821 9.104 406.325 9.52L405.365 7.792C406.021 7.264 406.805 6.864 407.717 6.592C408.629 6.304 409.597 6.16 410.621 6.16ZM410.093 17.368C410.973 17.368 411.733 17.176 412.373 16.792C413.013 16.392 413.477 15.832 413.765 15.112V13.336H410.213C408.261 13.336 407.285 13.992 407.285 15.304C407.285 15.944 407.533 16.448 408.029 16.816C408.525 17.184 409.213 17.368 410.093 17.368ZM423.98 19.144C422.94 19.144 421.94 19.008 420.98 18.736C420.02 18.448 419.268 18.088 418.724 17.656L419.684 15.832C420.244 16.232 420.924 16.552 421.724 16.792C422.524 17.032 423.332 17.152 424.148 17.152C426.164 17.152 427.172 16.576 427.172 15.424C427.172 15.04 427.036 14.736 426.764 14.512C426.492 14.288 426.148 14.128 425.732 14.032C425.332 13.92 424.756 13.8 424.004 13.672C422.98 13.512 422.14 13.328 421.484 13.12C420.844 12.912 420.292 12.56 419.828 12.064C419.364 11.568 419.132 10.872 419.132 9.976C419.132 8.824 419.612 7.904 420.572 7.216C421.532 6.512 422.82 6.16 424.436 6.16C425.284 6.16 426.132 6.264 426.98 6.472C427.828 6.68 428.524 6.96 429.068 7.312L428.084 9.136C427.044 8.464 425.82 8.128 424.412 8.128C423.436 8.128 422.692 8.288 422.18 8.608C421.668 8.928 421.412 9.352 421.412 9.88C421.412 10.296 421.556 10.624 421.844 10.864C422.132 11.104 422.484 11.28 422.9 11.392C423.332 11.504 423.932 11.632 424.7 11.776C425.724 11.952 426.548 12.144 427.172 12.352C427.812 12.544 428.356 12.88 428.804 13.36C429.252 13.84 429.476 14.512 429.476 15.376C429.476 16.528 428.98 17.448 427.988 18.136C427.012 18.808 425.676 19.144 423.98 19.144ZM439.508 18.256C439.172 18.544 438.756 18.768 438.26 18.928C437.764 19.072 437.252 19.144 436.724 19.144C435.444 19.144 434.452 18.8 433.748 18.112C433.044 17.424 432.692 16.44 432.692 15.16V8.176H430.532V6.28H432.692V3.496H434.996V6.28H438.644V8.176H434.996V15.064C434.996 15.752 435.164 16.28 435.5 16.648C435.852 17.016 436.348 17.2 436.988 17.2C437.692 17.2 438.292 17 438.788 16.6L439.508 18.256Z" fill="white"/>
<path d="M17.16 10.504V8.504H15.16V10.504H17.16ZM19.464 10.504H21.464V8.504H19.464V10.504ZM19.464 17.056L20.7385 18.5973L21.464 17.9974V17.056H19.464ZM16.56 18.64L15.9275 16.7426L15.9275 16.7426L16.56 18.64ZM8.52 18.088L7.55221 19.8383L7.56014 19.8426L7.5681 19.8469L8.52 18.088ZM5.304 15.016L3.57797 16.0264L3.58527 16.0388L3.59275 16.0512L5.304 15.016ZM5.304 6.184L3.58717 5.15809L3.58254 5.16584L3.57797 5.17364L5.304 6.184ZM8.52 3.112L7.57669 1.34841L7.5681 1.35305L8.52 3.112ZM16.8 2.68L16.0385 4.52936L16.0548 4.53607L16.0712 4.54249L16.8 2.68ZM19.608 4.6L21.0222 6.01421L22.3681 4.66828L21.0904 3.25744L19.608 4.6ZM18.12 6.088L16.7317 7.52769L18.1455 8.89095L19.5342 7.50221L18.12 6.088ZM9.792 4.984L10.7419 6.74407L10.7516 6.73874L9.792 4.984ZM7.416 7.288L9.13842 8.30451L9.14202 8.2984L9.14558 8.29227L7.416 7.288ZM7.416 13.912L5.68642 14.9163L5.68998 14.9224L5.69359 14.9285L7.416 13.912ZM9.792 16.216L8.82069 17.9644L8.83238 17.9707L9.792 16.216ZM17.16 15.976L18.2415 17.6584L19.16 17.0679V15.976H17.16ZM17.16 12.504H19.464V8.504H17.16V12.504ZM17.464 10.504V17.056H21.464V10.504H17.464ZM18.1895 15.5147C17.5621 16.0335 16.8157 16.4466 15.9275 16.7426L17.1925 20.5374C18.5123 20.0974 19.702 19.4545 20.7385 18.5973L18.1895 15.5147ZM15.9275 16.7426C15.0338 17.0405 14.0958 17.192 13.104 17.192V21.192C14.5122 21.192 15.8782 20.9755 17.1925 20.5374L15.9275 16.7426ZM13.104 17.192C11.7075 17.192 10.5119 16.8919 9.4719 16.3291L7.5681 19.8469C9.24806 20.7561 11.1085 21.192 13.104 21.192V17.192ZM9.48779 16.3377C8.42554 15.7504 7.61335 14.9695 7.01525 13.9808L3.59275 16.0512C4.56265 17.6545 5.89446 18.9216 7.55221 19.8383L9.48779 16.3377ZM7.03003 14.0056C6.45462 13.0226 6.152 11.9039 6.152 10.6H2.152C2.152 12.5601 2.61738 14.3854 3.57797 16.0264L7.03003 14.0056ZM6.152 10.6C6.152 9.29611 6.45462 8.17736 7.03003 7.19436L3.57797 5.17364C2.61738 6.81464 2.152 8.63989 2.152 10.6H6.152ZM7.02083 7.20991C7.61811 6.21038 8.42422 5.43792 9.4719 4.87094L7.5681 1.35305C5.89578 2.25807 4.55789 3.53362 3.58717 5.15809L7.02083 7.20991ZM9.4633 4.87557C10.5216 4.30949 11.7365 4.008 13.152 4.008V0.0079999C11.1435 0.0079999 9.27037 0.442511 7.5767 1.34843L9.4633 4.87557ZM13.152 4.008C14.2717 4.008 15.224 4.19396 16.0385 4.52936L17.5615 0.830644C16.2 0.270035 14.7203 0.0079999 13.152 0.0079999V4.008ZM16.0712 4.54249C16.8979 4.86599 17.5728 5.33222 18.1256 5.94256L21.0904 3.25744C20.1072 2.17178 18.9101 1.35801 17.5288 0.817514L16.0712 4.54249ZM18.1938 3.18579L16.7058 4.67379L19.5342 7.50221L21.0222 6.01421L18.1938 3.18579ZM19.5083 4.64831C17.7834 2.98501 15.6584 2.144 13.248 2.144V6.144C14.6456 6.144 15.7686 6.59899 16.7317 7.52769L19.5083 4.64831ZM13.248 2.144C11.6658 2.144 10.1784 2.49313 8.83238 3.22926L10.7516 6.73874C11.4536 6.35487 12.2702 6.144 13.248 6.144V2.144ZM8.84213 3.22395C7.509 3.94342 6.44737 4.97321 5.68642 6.28373L9.14558 8.29227C9.53663 7.61879 10.059 7.11258 10.7419 6.74404L8.84213 3.22395ZM5.69359 6.27149C4.92018 7.58198 4.552 9.0426 4.552 10.6H8.552C8.552 9.6934 8.75982 8.94601 9.13842 8.30451L5.69359 6.27149ZM4.552 10.6C4.552 12.1467 4.92257 13.6007 5.68642 14.9163L9.14558 12.9077C8.75743 12.2393 8.552 11.4852 8.552 10.6H4.552ZM5.69359 14.9285C6.45371 16.2165 7.50742 17.2347 8.82071 17.9643L10.7633 14.4677C10.0606 14.0773 9.53029 13.5595 9.13842 12.8955L5.69359 14.9285ZM8.83238 17.9707C10.1747 18.7048 11.6532 19.056 13.224 19.056V15.056C12.2668 15.056 11.4573 14.8472 10.7516 14.4613L8.83238 17.9707ZM13.224 19.056C15.0603 19.056 16.7584 18.6118 18.2415 17.6584L16.0785 14.2936C15.3216 14.7802 14.3957 15.056 13.224 15.056V19.056ZM19.16 15.976V10.504H15.16V15.976H19.16ZM32.3871 7.456L31.0242 8.91979L31.0305 8.92559L31.0367 8.93134L32.3871 7.456ZM33.8031 19V21H35.8031V19H33.8031ZM31.6191 19H29.6191V21H31.6191V19ZM31.6191 17.32H33.6191V10.5615L29.9411 16.2316L31.6191 17.32ZM29.9631 18.688L30.7559 20.5241L30.7657 20.5199L30.7753 20.5156L29.9631 18.688ZM24.0111 18.112L22.751 19.6651L22.7581 19.6709L22.7652 19.6766L24.0111 18.112ZM23.9631 12.712L25.2345 14.2559L25.2434 14.2485L25.2523 14.241L23.9631 12.712ZM31.4991 11.68V13.68H33.4991V11.68H31.4991ZM30.6351 8.944L31.9865 7.46969L31.9865 7.46969L30.6351 8.944ZM25.8831 8.536L26.5155 10.4334L26.5344 10.4271L26.5531 10.4204L25.8831 8.536ZM24.0591 9.52L22.3107 10.4913L23.4876 12.6096L25.3443 11.0524L24.0591 9.52ZM23.0991 7.792L21.845 6.23398L20.5325 7.29042L21.3507 8.76329L23.0991 7.792ZM25.4511 6.592L26.0227 8.50857L26.038 8.50399L26.0533 8.49916L25.4511 6.592ZM30.1071 16.792L31.1361 18.507L31.1516 18.4976L31.1671 18.488L30.1071 16.792ZM31.4991 15.112L33.356 15.8548L33.4991 15.4972V15.112H31.4991ZM31.4991 13.336H33.4991V11.336H31.4991V13.336ZM28.3551 8.16C29.807 8.16 30.5893 8.51489 31.0242 8.91979L33.7499 5.99221C32.3288 4.66911 30.4231 4.16 28.3551 4.16V8.16ZM31.0367 8.93134C31.4402 9.30057 31.8031 9.97076 31.8031 11.32H35.8031C35.8031 9.24524 35.222 7.33943 33.7374 5.98065L31.0367 8.93134ZM31.8031 11.32V19H35.8031V11.32H31.8031ZM33.8031 17H31.6191V21H33.8031V17ZM33.6191 19V17.32H29.6191V19H33.6191ZM29.9411 16.2316C29.7921 16.4614 29.5594 16.6788 29.1508 16.8604L30.7753 20.5156C31.8067 20.0572 32.6781 19.3626 33.297 18.4084L29.9411 16.2316ZM29.1702 16.8519C28.7748 17.0226 28.2179 17.144 27.4431 17.144V21.144C28.6202 21.144 29.7433 20.9614 30.7559 20.5241L29.1702 16.8519ZM27.4431 17.144C26.3391 17.144 25.6755 16.8808 25.2569 16.5474L22.7652 19.6766C24.0746 20.7192 25.699 21.144 27.4431 21.144V17.144ZM25.2711 16.5589C24.905 16.2618 24.7391 15.9352 24.7391 15.4H20.7391C20.7391 17.1048 21.4212 18.5862 22.751 19.6651L25.2711 16.5589ZM24.7391 15.4C24.7391 14.8368 24.9104 14.5228 25.2345 14.2559L22.6916 11.1681C21.3837 12.2452 20.7391 13.7232 20.7391 15.4H24.7391ZM25.2523 14.241C25.5352 14.0025 26.2575 13.68 27.8511 13.68V9.68C25.8927 9.68 24.0229 10.0455 22.6739 11.183L25.2523 14.241ZM27.8511 13.68H31.4991V9.68H27.8511V13.68ZM33.4991 11.68V11.224H29.4991V11.68H33.4991ZM33.4991 11.224C33.4991 9.8324 33.0812 8.47312 31.9865 7.46969L29.2836 10.4183C29.341 10.4709 29.4991 10.6316 29.4991 11.224H33.4991ZM31.9865 7.46969C30.9089 6.48184 29.4961 6.152 28.0911 6.152V10.152C28.926 10.152 29.2093 10.3502 29.2836 10.4183L31.9865 7.46969ZM28.0911 6.152C27.107 6.152 26.1446 6.32035 25.213 6.65157L26.5531 10.4204C27.0615 10.2397 27.5711 10.152 28.0911 10.152V6.152ZM25.2506 6.63863C24.3324 6.94469 23.4927 7.3847 22.7738 7.98762L25.3443 11.0524C25.6174 10.8233 25.9937 10.6073 26.5155 10.4334L25.2506 6.63863ZM25.8074 8.54871L24.8474 6.82071L21.3507 8.76329L22.3107 10.4913L25.8074 8.54871ZM24.3531 9.35002C24.7824 9.00448 25.327 8.71605 26.0227 8.50857L24.8795 4.67542C23.7511 5.01195 22.7277 5.52352 21.845 6.23398L24.3531 9.35002ZM26.0533 8.49916C26.7572 8.27689 27.5209 8.16 28.3551 8.16V4.16C27.1412 4.16 25.9689 4.33111 24.8488 4.68483L26.0533 8.49916ZM27.8271 19.368C29.004 19.368 30.1335 19.1085 31.1361 18.507L29.0781 15.077C28.8007 15.2435 28.4101 15.368 27.8271 15.368V19.368ZM31.1671 18.488C32.1776 17.8564 32.9149 16.9575 33.356 15.8548L29.6421 14.3692C29.5072 14.7065 29.3165 14.9276 29.0471 15.096L31.1671 18.488ZM33.4991 15.112V13.336H29.4991V15.112H33.4991ZM31.4991 11.336H27.9471V15.336H31.4991V11.336ZM27.9471 11.336C26.8099 11.336 25.6061 11.5157 24.6354 12.1681C23.5236 12.9154 23.0191 14.0723 23.0191 15.304H27.0191C27.0191 15.2249 27.0329 15.2527 26.9938 15.3316C26.9504 15.4191 26.8902 15.4721 26.8667 15.4879C26.8565 15.4948 26.9157 15.4527 27.1033 15.4106C27.2904 15.3687 27.5648 15.336 27.9471 15.336V11.336ZM23.0191 15.304C23.0191 16.5502 23.5456 17.6611 24.5714 18.4222L26.9548 15.2098C26.9426 15.2008 26.9468 15.2021 26.959 15.2164C26.9717 15.2313 26.9867 15.2528 26.9996 15.279C27.0124 15.305 27.0181 15.3254 27.0202 15.3348C27.022 15.3433 27.0191 15.3347 27.0191 15.304H23.0191ZM24.5714 18.4222C25.531 19.1342 26.6944 19.368 27.8271 19.368V15.368C27.1997 15.368 26.9871 15.2338 26.9548 15.2098L24.5714 18.4222ZM57.7708 7.552L56.3566 8.96621L56.3626 8.97226L56.3687 8.97825L57.7708 7.552ZM59.1868 19V21H61.1868V19H59.1868ZM56.8828 19H54.8828V21H56.8828V19ZM56.0188 9.16L54.5303 10.4958L54.5397 10.5063L54.5492 10.5166L56.0188 9.16ZM50.8108 9.328L52.2568 10.7097L52.2644 10.7018L52.2719 10.6938L50.8108 9.328ZM49.7788 19V21H51.7788V19H49.7788ZM47.4748 19H45.4748V21H47.4748V19ZM46.6108 9.16L45.1223 10.4958L45.1317 10.5063L45.1412 10.5166L46.6108 9.16ZM41.4028 9.328L42.8488 10.7097L42.8564 10.7018L42.8639 10.6938L41.4028 9.328ZM40.3708 19V21H42.3708V19H40.3708ZM38.0668 19H36.0668V21H38.0668V19ZM38.0668 6.28V4.28H36.0668V6.28H38.0668ZM40.2748 6.28H42.2748V4.28H40.2748V6.28ZM40.2748 8.176H38.2748V14.467L41.9076 9.33093L40.2748 8.176ZM42.0988 6.688L42.9147 8.51402L42.9308 8.50684L42.9467 8.49938L42.0988 6.688ZM47.3068 6.76L48.2307 4.98617L48.2307 4.98617L47.3068 6.76ZM49.0828 8.512L47.3242 9.46456L48.9236 12.4173L50.758 9.60454L49.0828 8.512ZM51.0748 6.784L50.2072 4.982L50.2006 4.98518L50.194 4.98842L51.0748 6.784ZM53.9788 8.16C55.1722 8.16 55.883 8.49259 56.3566 8.96621L59.185 6.13779C57.8027 4.75541 55.9855 4.16 53.9788 4.16V8.16ZM56.3687 8.97825C56.8041 9.40618 57.1868 10.1849 57.1868 11.68H61.1868C61.1868 9.52712 60.6256 7.55382 59.1729 6.12575L56.3687 8.97825ZM57.1868 11.68V19H61.1868V11.68H57.1868ZM59.1868 17H56.8828V21H59.1868V17ZM58.8828 19V11.944H54.8828V19H58.8828ZM58.8828 11.944C58.8828 10.4335 58.532 8.93393 57.4884 7.80344L54.5492 10.5166C54.6577 10.6341 54.8828 10.9905 54.8828 11.944H58.8828ZM57.5073 7.82418C56.4739 6.67264 55.0608 6.224 53.5948 6.224V10.224C54.2409 10.224 54.4438 10.3994 54.5303 10.4958L57.5073 7.82418ZM53.5948 6.224C51.9695 6.224 50.4772 6.75617 49.3498 7.96223L52.2719 10.6938C52.5205 10.4278 52.8841 10.224 53.5948 10.224V6.224ZM49.3648 7.94628C48.2079 9.15698 47.7788 10.7647 47.7788 12.448H51.7788C51.7788 11.4113 52.0377 10.939 52.2568 10.7097L49.3648 7.94628ZM47.7788 12.448V19H51.7788V12.448H47.7788ZM49.7788 17H47.4748V21H49.7788V17ZM49.4748 19V11.944H45.4748V19H49.4748ZM49.4748 11.944C49.4748 10.4335 49.124 8.93393 48.0804 7.80344L45.1412 10.5166C45.2497 10.6341 45.4748 10.9905 45.4748 11.944H49.4748ZM48.0993 7.82418C47.0659 6.67264 45.6528 6.224 44.1868 6.224V10.224C44.8329 10.224 45.0358 10.3994 45.1223 10.4958L48.0993 7.82418ZM44.1868 6.224C42.5615 6.224 41.0692 6.75617 39.9418 7.96223L42.8639 10.6938C43.1125 10.4278 43.4761 10.224 44.1868 10.224V6.224ZM39.9568 7.94628C38.7999 9.15698 38.3708 10.7647 38.3708 12.448H42.3708C42.3708 11.4113 42.6297 10.939 42.8488 10.7097L39.9568 7.94628ZM38.3708 12.448V19H42.3708V12.448H38.3708ZM40.3708 17H38.0668V21H40.3708V17ZM40.0668 19V6.28H36.0668V19H40.0668ZM38.0668 8.28H40.2748V4.28H38.0668V8.28ZM38.2748 6.28V8.176H42.2748V6.28H38.2748ZM41.9076 9.33093C42.1591 8.97546 42.4817 8.7075 42.9147 8.51402L41.2829 4.86198C40.212 5.3405 39.3186 6.06453 38.642 7.02107L41.9076 9.33093ZM42.9467 8.49938C43.3949 8.28959 43.9542 8.16 44.6668 8.16V4.16C43.4594 4.16 42.3068 4.38241 41.2509 4.87662L42.9467 8.49938ZM44.6668 8.16C45.3843 8.16 45.9393 8.30277 46.3829 8.53383L48.2307 4.98617C47.1383 4.41723 45.9333 4.16 44.6668 4.16V8.16ZM46.3829 8.53383C46.7937 8.74778 47.0965 9.04422 47.3242 9.46456L50.8414 7.55943C50.2371 6.44378 49.3559 5.57222 48.2307 4.98617L46.3829 8.53383ZM50.758 9.60454C51.0266 9.19271 51.4058 8.84932 51.9557 8.57958L50.194 4.98842C49.0478 5.55068 48.099 6.35929 47.4076 7.41946L50.758 9.60454ZM51.9424 8.586C52.5053 8.31498 53.1715 8.16 53.9788 8.16V4.16C52.6421 4.16 51.3723 4.42102 50.2072 4.982L51.9424 8.586ZM74.9445 13.408V15.408H76.7346L76.9323 13.6289L74.9445 13.408ZM64.6245 13.408V11.408H62.3509L62.6408 13.663L64.6245 13.408ZM66.0885 16.12L64.814 17.6613L64.83 17.6746L64.8463 17.6875L66.0885 16.12ZM72.9045 15.592L74.4247 14.2924L72.9483 12.5653L71.4225 14.249L72.9045 15.592ZM74.1765 17.08L75.695 18.3816L76.8092 17.0818L75.6967 15.7804L74.1765 17.08ZM72.0165 18.616L71.2619 16.7638L71.2497 16.7688L72.0165 18.616ZM65.5845 18.328L64.6363 20.0889L64.6469 20.0946L64.6575 20.1002L65.5845 18.328ZM63.1605 16L61.4189 16.9832L61.4248 16.9938L61.4309 17.0043L63.1605 16ZM63.1365 9.304L61.3949 8.32081L61.3888 8.33154L61.3829 8.34233L63.1365 9.304ZM65.4165 7L66.4025 8.74007L66.4118 8.73473L65.4165 7ZM71.9445 7L70.9241 8.72011L70.9412 8.73025L70.9585 8.74004L71.9445 7ZM74.1765 9.304L72.411 10.2437L72.4169 10.2547L72.4229 10.2657L74.1765 9.304ZM65.9205 9.112L64.5878 7.62069L64.5799 7.62782L64.572 7.63503L65.9205 9.112ZM64.6245 11.752L62.6382 11.5183L62.3754 13.752H64.6245V11.752ZM72.7845 11.752V13.752H75.0375L74.7704 11.5149L72.7845 11.752ZM71.4645 9.136L70.0987 10.5971L70.1151 10.6124L70.1318 10.6273L71.4645 9.136ZM72.9925 12.712C72.9925 12.7825 72.9851 12.9322 72.9567 13.1871L76.9323 13.6289C76.9679 13.3078 76.9925 12.9935 76.9925 12.712H72.9925ZM74.9445 11.408H64.6245V15.408H74.9445V11.408ZM62.6408 13.663C62.8462 15.2607 63.5716 16.634 64.814 17.6613L67.363 14.5787C66.9414 14.23 66.6908 13.7953 66.6082 13.153L62.6408 13.663ZM64.8463 17.6875C66.1007 18.6815 67.6061 19.128 69.2325 19.128V15.128C68.3629 15.128 67.7723 14.9025 67.3307 14.5525L64.8463 17.6875ZM69.2325 19.128C71.2541 19.128 73.039 18.4219 74.3865 16.935L71.4225 14.249C70.914 14.8101 70.2509 15.128 69.2325 15.128V19.128ZM71.3843 16.8916L72.6563 18.3796L75.6967 15.7804L74.4247 14.2924L71.3843 16.8916ZM72.658 15.7784C72.3004 16.1956 71.8475 16.5252 71.2619 16.7638L72.7711 20.4682C73.9135 20.0028 74.9006 19.3084 75.695 18.3816L72.658 15.7784ZM71.2497 16.7688C70.6785 17.0059 69.9925 17.144 69.1605 17.144V21.144C70.4405 21.144 71.6585 20.9301 72.7833 20.4632L71.2497 16.7688ZM69.1605 17.144C68.0922 17.144 67.2263 16.9297 66.5115 16.5558L64.6575 20.1002C66.0227 20.8143 67.5408 21.144 69.1605 21.144V17.144ZM66.5327 16.5671C65.8079 16.1768 65.2748 15.6583 64.8901 14.9957L61.4309 17.0043C62.1982 18.3257 63.2811 19.3592 64.6363 20.0889L66.5327 16.5671ZM64.9021 15.0168C64.5274 14.3529 64.3205 13.5773 64.3205 12.64H60.3205C60.3205 14.1987 60.6736 15.6631 61.4189 16.9832L64.9021 15.0168ZM64.3205 12.64C64.3205 11.7135 64.5219 10.9371 64.8901 10.2657L61.3829 8.34233C60.6631 9.65486 60.3205 11.1025 60.3205 12.64H64.3205ZM64.8781 10.2872C65.2657 9.60065 65.769 9.09905 66.4025 8.74004L64.4305 5.25996C63.144 5.98895 62.1273 7.02335 61.3949 8.32081L64.8781 10.2872ZM66.4118 8.73473C67.0607 8.36246 67.8087 8.16 68.7045 8.16V4.16C67.1683 4.16 65.7243 4.51754 64.4212 5.26527L66.4118 8.73473ZM68.7045 8.16C69.6012 8.16 70.3215 8.36261 70.9241 8.72011L72.9649 5.27989C71.6795 4.51739 70.2398 4.16 68.7045 4.16V8.16ZM70.9585 8.74004C71.5815 9.0931 72.058 9.58056 72.411 10.2437L75.942 8.3643C75.239 7.04344 74.2275 5.9949 72.9305 5.25996L70.9585 8.74004ZM72.4229 10.2657C72.785 10.926 72.9925 11.7234 72.9925 12.712H76.9925C76.9925 11.1406 76.656 9.66602 75.9301 8.34233L72.4229 10.2657ZM68.7045 6.104C67.1592 6.104 65.7423 6.58902 64.5878 7.62069L67.2532 10.6033C67.6027 10.291 68.0418 10.104 68.7045 10.104V6.104ZM64.572 7.63503C63.4447 8.66431 62.8164 10.0037 62.6382 11.5183L66.6108 11.9857C66.6886 11.3243 66.9243 10.9037 67.269 10.589L64.572 7.63503ZM64.6245 13.752H72.7845V9.752H64.6245V13.752ZM74.7704 11.5149C74.5891 9.99626 73.9393 8.66528 72.7972 7.64469L70.1318 10.6273C70.4937 10.9507 70.7239 11.3637 70.7986 11.9891L74.7704 11.5149ZM72.8303 7.67495C71.6869 6.60615 70.2627 6.104 68.7045 6.104V10.104C69.3543 10.104 69.7701 10.2899 70.0987 10.5971L72.8303 7.67495ZM84.9731 2.2V0.199999H82.9731V2.2H84.9731ZM96.7811 3.256L95.8702 5.0365L95.8702 5.0365L96.7811 3.256ZM99.9731 6.232L98.2487 7.2451L98.2562 7.25787L98.2639 7.27052L99.9731 6.232ZM99.9731 14.992L98.2581 13.963L98.2543 13.9694L99.9731 14.992ZM96.7811 17.944L95.8702 16.1635L95.8702 16.1635L96.7811 17.944ZM84.9731 19H82.9731V21H84.9731V19ZM95.4851 16.12L94.5797 14.3366L94.5685 14.3424L95.4851 16.12ZM97.8851 13.912L99.6052 14.9324L99.609 14.9261L99.6127 14.9197L97.8851 13.912ZM97.8851 7.312L96.1576 8.31974L96.1613 8.32609L96.165 8.3324L97.8851 7.312ZM95.4851 5.08L94.5685 6.85764L94.5797 6.86333L95.4851 5.08ZM87.3731 4.288V2.288H85.3731V4.288H87.3731ZM87.3731 16.912H85.3731V18.912H87.3731V16.912ZM84.9731 4.2H92.0531V0.199999H84.9731V4.2ZM92.0531 4.2C93.5598 4.2 94.8155 4.49692 95.8702 5.0365L97.6921 1.4755C95.9947 0.60708 94.0985 0.199999 92.0531 0.199999V4.2ZM95.8702 5.0365C96.9222 5.57475 97.6975 6.30696 98.2487 7.2451L101.698 5.2189C100.745 3.59704 99.392 2.34525 97.6921 1.4755L95.8702 5.0365ZM98.2639 7.27052C98.8205 8.18667 99.1251 9.27524 99.1251 10.6H103.125C103.125 8.62875 102.662 6.80533 101.682 5.19348L98.2639 7.27052ZM99.1251 10.6C99.1251 11.9243 98.8206 13.0255 98.2581 13.963L101.688 16.021C102.662 14.3985 103.125 12.5717 103.125 10.6H99.1251ZM98.2543 13.9694C97.7049 14.8929 96.9288 15.6219 95.8702 16.1635L97.6921 19.7245C99.3855 18.8581 100.737 17.6191 101.692 16.0146L98.2543 13.9694ZM95.8702 16.1635C94.8155 16.7031 93.5598 17 92.0531 17V21C94.0985 21 95.9947 20.5929 97.6921 19.7245L95.8702 16.1635ZM92.0531 17H84.9731V21H92.0531V17ZM86.9731 19V2.2H82.9731V19H86.9731ZM91.9091 18.912C93.5306 18.912 95.0473 18.5959 96.4017 17.8976L94.5685 14.3424C93.8749 14.7001 93.0076 14.912 91.9091 14.912V18.912ZM96.3905 17.9033C97.7468 17.2148 98.8393 16.2236 99.6052 14.9324L96.165 12.8916C95.811 13.4884 95.3034 13.9692 94.5797 14.3367L96.3905 17.9033ZM99.6127 14.9197C100.372 13.6176 100.725 12.1576 100.725 10.6H96.7251C96.7251 11.5384 96.518 12.2864 96.1576 12.9043L99.6127 14.9197ZM100.725 10.6C100.725 9.04309 100.372 7.58491 99.6052 6.29159L96.165 8.3324C96.5178 8.92708 96.7251 9.66091 96.7251 10.6H100.725ZM99.6127 6.30426C98.8491 4.99519 97.7556 3.98972 96.3905 3.29667L94.5797 6.86333C95.2946 7.22628 95.8012 7.70881 96.1576 8.31974L99.6127 6.30426ZM96.4017 3.30239C95.0473 2.60405 93.5306 2.288 91.9091 2.288V6.288C93.0076 6.288 93.8749 6.49995 94.5685 6.85761L96.4017 3.30239ZM91.9091 2.288H87.3731V6.288H91.9091V2.288ZM85.3731 4.288V16.912H89.3731V4.288H85.3731ZM87.3731 18.912H91.9091V14.912H87.3731V18.912ZM115.913 13.408V15.408H117.703L117.901 13.6289L115.913 13.408ZM105.593 13.408V11.408H103.32L103.61 13.663L105.593 13.408ZM107.057 16.12L105.783 17.6613L105.799 17.6746L105.815 17.6875L107.057 16.12ZM113.873 15.592L115.393 14.2924L113.917 12.5653L112.391 14.249L113.873 15.592ZM115.145 17.08L116.664 18.3816L117.778 17.0818L116.665 15.7804L115.145 17.08ZM112.985 18.616L112.231 16.7638L112.218 16.7688L112.985 18.616ZM106.553 18.328L105.605 20.0889L105.616 20.0946L105.626 20.1002L106.553 18.328ZM104.129 16L102.388 16.9832L102.394 16.9938L102.4 17.0043L104.129 16ZM104.105 9.304L102.364 8.32081L102.358 8.33154L102.352 8.34233L104.105 9.304ZM106.385 7L107.371 8.74007L107.381 8.73473L106.385 7ZM112.913 7L111.893 8.72011L111.91 8.73025L111.927 8.74004L112.913 7ZM115.145 9.304L113.38 10.2437L113.386 10.2547L113.392 10.2657L115.145 9.304ZM106.889 9.112L105.557 7.62069L105.549 7.62782L105.541 7.63503L106.889 9.112ZM105.593 11.752L103.607 11.5183L103.344 13.752H105.593V11.752ZM113.753 11.752V13.752H116.006L115.739 11.5149L113.753 11.752ZM112.433 9.136L111.067 10.5971L111.084 10.6124L111.101 10.6273L112.433 9.136ZM113.961 12.712C113.961 12.7825 113.954 12.9322 113.925 13.1871L117.901 13.6289C117.937 13.3078 117.961 12.9935 117.961 12.712H113.961ZM115.913 11.408H105.593V15.408H115.913V11.408ZM103.61 13.663C103.815 15.2607 104.54 16.634 105.783 17.6613L108.332 14.5787C107.91 14.23 107.66 13.7953 107.577 13.153L103.61 13.663ZM105.815 17.6875C107.069 18.6815 108.575 19.128 110.201 19.128V15.128C109.332 15.128 108.741 14.9025 108.299 14.5525L105.815 17.6875ZM110.201 19.128C112.223 19.128 114.008 18.4219 115.355 16.935L112.391 14.249C111.883 14.8101 111.22 15.128 110.201 15.128V19.128ZM112.353 16.8916L113.625 18.3796L116.665 15.7804L115.393 14.2924L112.353 16.8916ZM113.627 15.7784C113.269 16.1956 112.816 16.5252 112.231 16.7638L113.74 20.4682C114.882 20.0028 115.869 19.3084 116.664 18.3816L113.627 15.7784ZM112.218 16.7688C111.647 17.0059 110.961 17.144 110.129 17.144V21.144C111.409 21.144 112.627 20.9301 113.752 20.4632L112.218 16.7688ZM110.129 17.144C109.061 17.144 108.195 16.9297 107.48 16.5558L105.626 20.1002C106.991 20.8143 108.51 21.144 110.129 21.144V17.144ZM107.501 16.5671C106.777 16.1768 106.244 15.6583 105.859 14.9957L102.4 17.0043C103.167 18.3257 104.25 19.3592 105.605 20.0889L107.501 16.5671ZM105.871 15.0168C105.496 14.3529 105.289 13.5773 105.289 12.64H101.289C101.289 14.1987 101.642 15.6631 102.388 16.9832L105.871 15.0168ZM105.289 12.64C105.289 11.7135 105.491 10.9371 105.859 10.2657L102.352 8.34233C101.632 9.65486 101.289 11.1025 101.289 12.64H105.289ZM105.847 10.2872C106.234 9.60065 106.738 9.09905 107.371 8.74004L105.399 5.25996C104.113 5.98895 103.096 7.02335 102.364 8.32081L105.847 10.2872ZM107.381 8.73473C108.029 8.36246 108.777 8.16 109.673 8.16V4.16C108.137 4.16 106.693 4.51754 105.39 5.26527L107.381 8.73473ZM109.673 8.16C110.57 8.16 111.29 8.36261 111.893 8.72011L113.934 5.27989C112.648 4.51739 111.209 4.16 109.673 4.16V8.16ZM111.927 8.74004C112.55 9.0931 113.027 9.58056 113.38 10.2437L116.911 8.3643C116.208 7.04344 115.196 5.9949 113.899 5.25996L111.927 8.74004ZM113.392 10.2657C113.754 10.926 113.961 11.7234 113.961 12.712H117.961C117.961 11.1406 117.625 9.66602 116.899 8.34233L113.392 10.2657ZM109.673 6.104C108.128 6.104 106.711 6.58902 105.557 7.62069L108.222 10.6033C108.571 10.291 109.011 10.104 109.673 10.104V6.104ZM105.541 7.63503C104.413 8.66431 103.785 10.0037 103.607 11.5183L107.58 11.9857C107.657 11.3243 107.893 10.9037 108.238 10.589L105.541 7.63503ZM105.593 13.752H113.753V9.752H105.593V13.752ZM115.739 11.5149C115.558 9.99626 114.908 8.66528 113.766 7.64469L111.101 10.6273C111.462 10.9507 111.693 11.3637 111.767 11.9891L115.739 11.5149ZM113.799 7.67495C112.656 6.60615 111.231 6.104 109.673 6.104V10.104C110.323 10.104 110.739 10.2899 111.067 10.5971L113.799 7.67495ZM130.182 6.28L132.014 7.082L133.241 4.28H130.182V6.28ZM124.614 19V21H125.922L126.446 19.802L124.614 19ZM122.262 19L120.43 19.802L120.954 21H122.262V19ZM116.694 6.28V4.28H113.635L114.862 7.082L116.694 6.28ZM119.094 6.28L120.933 5.49268L120.413 4.28H119.094V6.28ZM123.462 16.48L121.624 17.2673L123.442 21.514L125.294 17.2819L123.462 16.48ZM127.926 6.28V4.28H126.618L126.094 5.47814L127.926 6.28ZM128.35 5.478L122.782 18.198L126.446 19.802L132.014 7.082L128.35 5.478ZM124.614 17H122.262V21H124.614V17ZM124.094 18.198L118.526 5.478L114.862 7.082L120.43 19.802L124.094 18.198ZM116.694 8.28H119.094V4.28H116.694V8.28ZM117.256 7.06732L121.624 17.2673L125.301 15.6927L120.933 5.49268L117.256 7.06732ZM125.294 17.2819L129.758 7.08186L126.094 5.47814L121.63 15.6781L125.294 17.2819ZM127.926 8.28H130.182V4.28H127.926V8.28ZM143.429 13.408V15.408H145.219L145.417 13.6289L143.429 13.408ZM133.109 13.408V11.408H130.835L131.125 13.663L133.109 13.408ZM134.573 16.12L133.298 17.6613L133.314 17.6746L133.331 17.6875L134.573 16.12ZM141.389 15.592L142.909 14.2924L141.433 12.5653L139.907 14.249L141.389 15.592ZM142.661 17.08L144.179 18.3816L145.294 17.0818L144.181 15.7804L142.661 17.08ZM140.501 18.616L139.746 16.7638L139.734 16.7688L140.501 18.616ZM134.069 18.328L133.121 20.0889L133.131 20.0946L133.142 20.1002L134.069 18.328ZM131.645 16L129.903 16.9832L129.909 16.9938L129.915 17.0043L131.645 16ZM131.621 9.304L129.879 8.32081L129.873 8.33154L129.867 8.34233L131.621 9.304ZM133.901 7L134.887 8.74007L134.896 8.73473L133.901 7ZM140.429 7L139.408 8.72011L139.426 8.73025L139.443 8.74004L140.429 7ZM142.661 9.304L140.895 10.2437L140.901 10.2547L140.907 10.2657L142.661 9.304ZM134.405 9.112L133.072 7.62069L133.064 7.62782L133.056 7.63503L134.405 9.112ZM133.109 11.752L131.123 11.5183L130.86 13.752H133.109V11.752ZM141.269 11.752V13.752H143.522L143.255 11.5149L141.269 11.752ZM139.949 9.136L138.583 10.5971L138.599 10.6124L138.616 10.6273L139.949 9.136ZM141.477 12.712C141.477 12.7825 141.469 12.9322 141.441 13.1871L145.417 13.6289C145.452 13.3078 145.477 12.9935 145.477 12.712H141.477ZM143.429 11.408H133.109V15.408H143.429V11.408ZM131.125 13.663C131.331 15.2607 132.056 16.634 133.298 17.6613L135.847 14.5787C135.426 14.23 135.175 13.7953 135.093 13.153L131.125 13.663ZM133.331 17.6875C134.585 18.6815 136.09 19.128 137.717 19.128V15.128C136.847 15.128 136.257 14.9025 135.815 14.5525L133.331 17.6875ZM137.717 19.128C139.738 19.128 141.523 18.4219 142.871 16.935L139.907 14.249C139.398 14.8101 138.735 15.128 137.717 15.128V19.128ZM139.869 16.8916L141.141 18.3796L144.181 15.7804L142.909 14.2924L139.869 16.8916ZM141.142 15.7784C140.785 16.1956 140.332 16.5252 139.746 16.7638L141.255 20.4682C142.398 20.0028 143.385 19.3084 144.179 18.3816L141.142 15.7784ZM139.734 16.7688C139.163 17.0059 138.477 17.144 137.645 17.144V21.144C138.925 21.144 140.143 20.9301 141.268 20.4632L139.734 16.7688ZM137.645 17.144C136.577 17.144 135.711 16.9297 134.996 16.5558L133.142 20.1002C134.507 20.8143 136.025 21.144 137.645 21.144V17.144ZM135.017 16.5671C134.292 16.1768 133.759 15.6583 133.374 14.9957L129.915 17.0043C130.683 18.3257 131.765 19.3592 133.121 20.0889L135.017 16.5671ZM133.387 15.0168C133.012 14.3529 132.805 13.5773 132.805 12.64H128.805C128.805 14.1987 129.158 15.6631 129.903 16.9832L133.387 15.0168ZM132.805 12.64C132.805 11.7135 133.006 10.9371 133.374 10.2657L129.867 8.34233C129.147 9.65486 128.805 11.1025 128.805 12.64H132.805ZM133.363 10.2872C133.75 9.60065 134.253 9.09905 134.887 8.74004L132.915 5.25996C131.628 5.98895 130.612 7.02335 129.879 8.32081L133.363 10.2872ZM134.896 8.73473C135.545 8.36246 136.293 8.16 137.189 8.16V4.16C135.653 4.16 134.209 4.51754 132.906 5.26527L134.896 8.73473ZM137.189 8.16C138.086 8.16 138.806 8.36261 139.408 8.72011L141.449 5.27989C140.164 4.51739 138.724 4.16 137.189 4.16V8.16ZM139.443 8.74004C140.066 9.0931 140.542 9.58056 140.895 10.2437L144.426 8.3643C143.723 7.04344 142.712 5.9949 141.415 5.25996L139.443 8.74004ZM140.907 10.2657C141.269 10.926 141.477 11.7234 141.477 12.712H145.477C145.477 11.1406 145.14 9.66602 144.414 8.34233L140.907 10.2657ZM137.189 6.104C135.644 6.104 134.227 6.58902 133.072 7.62069L135.738 10.6033C136.087 10.291 136.526 10.104 137.189 10.104V6.104ZM133.056 7.63503C131.929 8.66431 131.301 10.0037 131.123 11.5183L135.095 11.9857C135.173 11.3243 135.409 10.9037 135.753 10.589L133.056 7.63503ZM133.109 13.752H141.269V9.752H133.109V13.752ZM143.255 11.5149C143.073 9.99626 142.424 8.66528 141.282 7.64469L138.616 10.6273C138.978 10.9507 139.208 11.3637 139.283 11.9891L143.255 11.5149ZM141.315 7.67495C140.171 6.60615 138.747 6.104 137.189 6.104V10.104C137.839 10.104 138.254 10.2899 138.583 10.5971L141.315 7.67495ZM146.676 1.192V-0.808001H144.676V1.192H146.676ZM148.98 1.192H150.98V-0.808001H148.98V1.192ZM148.98 19V21H150.98V19H148.98ZM146.676 19H144.676V21H146.676V19ZM146.676 3.192H148.98V-0.808001H146.676V3.192ZM146.98 1.192V19H150.98V1.192H146.98ZM148.98 17H146.676V21H148.98V17ZM148.676 19V1.192H144.676V19H148.676ZM155.419 18.304L156.391 16.5557L156.391 16.5557L155.419 18.304ZM153.043 16L151.302 16.9832L151.311 16.9999L151.321 17.0165L153.043 16ZM153.043 9.304L151.314 8.29972L151.309 8.30866L153.043 9.304ZM155.419 7L156.369 8.76004L156.38 8.75424L156.391 8.74831L155.419 7ZM162.211 7L161.228 8.74165L161.245 8.75101L161.261 8.76004L162.211 7ZM164.563 9.304L162.822 10.2872L162.831 10.3039L162.841 10.3205L164.563 9.304ZM164.563 16L162.834 14.9957L162.829 15.0047L164.563 16ZM162.211 18.304L161.24 16.5556L161.228 16.5624L162.211 18.304ZM161.011 16.576L162.008 18.3098L162.015 18.3059L162.022 18.302L161.011 16.576ZM162.547 14.992L164.302 15.9526L164.306 15.944L164.311 15.9353L162.547 14.992ZM162.547 10.312L160.784 11.2553L160.788 11.264L160.793 11.2726L162.547 10.312ZM161.011 8.728L160.014 10.4618L160.024 10.4671L160.033 10.4723L161.011 8.728ZM156.619 8.728L155.641 6.98371L155.632 6.9889L155.622 6.99419L156.619 8.728ZM155.083 10.312L153.337 9.33727L153.333 9.3443L153.329 9.35137L155.083 10.312ZM155.083 14.992L153.32 15.9353L153.333 15.96L153.347 15.9843L155.083 14.992ZM156.619 16.576L155.59 18.291L155.615 18.306L155.641 18.3203L156.619 16.576ZM158.827 17.144C157.87 17.144 157.074 16.9351 156.391 16.5557L154.448 20.0523C155.781 20.7929 157.257 21.144 158.827 21.144V17.144ZM156.391 16.5557C155.688 16.1653 155.158 15.6475 154.766 14.9835L151.321 17.0165C152.081 18.3045 153.135 19.3227 154.448 20.0523L156.391 16.5557ZM154.785 15.0168C154.41 14.3529 154.203 13.5773 154.203 12.64H150.203C150.203 14.1987 150.556 15.6631 151.302 16.9832L154.785 15.0168ZM154.203 12.64C154.203 11.7022 154.41 10.9403 154.778 10.2993L151.309 8.30866C150.556 9.61973 150.203 11.0818 150.203 12.64H154.203ZM154.773 10.3083C155.164 9.63479 155.686 9.12858 156.369 8.76004L154.469 5.23996C153.136 5.95942 152.075 6.98921 151.314 8.29973L154.773 10.3083ZM156.391 8.74831C157.074 8.36892 157.87 8.16 158.827 8.16V4.16C157.257 4.16 155.781 4.51108 154.448 5.25169L156.391 8.74831ZM158.827 8.16C159.785 8.16 160.568 8.36903 161.228 8.74165L163.195 5.25835C161.871 4.51097 160.397 4.16 158.827 4.16V8.16ZM161.261 8.76004C161.939 9.12597 162.448 9.62553 162.822 10.2872L166.305 8.32081C165.558 6.99847 164.499 5.96203 163.161 5.23996L161.261 8.76004ZM162.841 10.3205C163.217 10.958 163.427 11.7123 163.427 12.64H167.427C167.427 11.0717 167.061 9.60198 166.286 8.28749L162.841 10.3205ZM163.427 12.64C163.427 13.5672 163.217 14.3353 162.834 14.9957L166.293 17.0043C167.061 15.6807 167.427 14.2088 167.427 12.64H163.427ZM162.829 15.0047C162.454 15.6567 161.938 16.1679 161.24 16.5557L163.183 20.0523C164.501 19.3201 165.552 18.2953 166.298 16.9953L162.829 15.0047ZM161.228 16.5624C160.568 16.935 159.785 17.144 158.827 17.144V21.144C160.397 21.144 161.871 20.793 163.195 20.0456L161.228 16.5624ZM158.827 19.128C159.955 19.128 161.034 18.8701 162.008 18.3098L160.014 14.8422C159.709 15.0179 159.331 15.128 158.827 15.128V19.128ZM162.022 18.302C162.993 17.7335 163.761 16.9398 164.302 15.9526L160.793 14.0314C160.598 14.3882 160.342 14.6505 160.001 14.85L162.022 18.302ZM164.311 15.9353C164.853 14.9217 165.099 13.8065 165.099 12.64H161.099C161.099 13.2335 160.978 13.6863 160.784 14.0487L164.311 15.9353ZM165.099 12.64C165.099 11.4746 164.853 10.3591 164.302 9.35137L160.793 11.2726C160.977 11.6089 161.099 12.0454 161.099 12.64H165.099ZM164.311 9.3687C163.77 8.35751 162.991 7.54557 161.99 6.98371L160.033 10.4723C160.343 10.6464 160.589 10.8905 160.784 11.2553L164.311 9.3687ZM162.008 6.99419C161.034 6.43387 159.955 6.176 158.827 6.176V10.176C159.331 10.176 159.709 10.2861 160.014 10.4618L162.008 6.99419ZM158.827 6.176C157.699 6.176 156.621 6.434 155.641 6.98371L157.598 10.4723C157.93 10.286 158.324 10.176 158.827 10.176V6.176ZM155.622 6.99419C154.647 7.55491 153.885 8.35516 153.337 9.33727L156.83 11.2867C157.05 10.8928 157.311 10.6371 157.616 10.4618L155.622 6.99419ZM153.329 9.35137C152.777 10.3591 152.531 11.4746 152.531 12.64H156.531C156.531 12.0454 156.653 11.6089 156.838 11.2726L153.329 9.35137ZM152.531 12.64C152.531 13.8065 152.778 14.9217 153.32 15.9353L156.847 14.0487C156.653 13.6863 156.531 13.2335 156.531 12.64H152.531ZM153.347 15.9843C153.894 16.9424 154.645 17.724 155.59 18.291L157.648 14.861C157.313 14.66 157.04 14.3856 156.82 13.9997L153.347 15.9843ZM155.641 18.3203C156.621 18.87 157.699 19.128 158.827 19.128V15.128C158.324 15.128 157.93 15.018 157.598 14.8317L155.641 18.3203ZM178.67 6.976L179.643 5.22904L179.643 5.22904L178.67 6.976ZM180.95 9.256L179.203 10.2297L179.209 10.2406L179.215 10.2513L180.95 9.256ZM180.95 16.048L179.208 15.0648L179.203 15.0743L180.95 16.048ZM178.67 18.328L179.643 20.075L179.643 20.075L178.67 18.328ZM172.838 18.616L171.99 20.4274L171.997 20.4308L172.004 20.4341L172.838 18.616ZM170.918 17.08L172.49 15.8444L168.918 11.2974V17.08H170.918ZM170.918 23.656V25.656H172.918V23.656H170.918ZM168.614 23.656H166.614V25.656H168.614V23.656ZM168.614 6.28V4.28H166.614V6.28H168.614ZM170.822 6.28H172.822V4.28H170.822V6.28ZM170.822 8.296H168.822V14.4464L172.439 9.47234L170.822 8.296ZM172.766 6.712L173.585 8.53654L173.6 8.52963L173.616 8.52247L172.766 6.712ZM177.35 16.576L178.347 18.3098L178.353 18.3059L178.36 18.302L177.35 16.576ZM178.886 14.992L177.139 14.0173L177.135 14.0243L177.131 14.0314L178.886 14.992ZM178.886 10.312L177.122 11.2553L177.135 11.28L177.149 11.3043L178.886 10.312ZM177.35 8.728L176.353 10.4618L176.362 10.4671L176.371 10.4723L177.35 8.728ZM172.982 8.752L173.979 10.4858L173.985 10.4819L173.992 10.478L172.982 8.752ZM171.446 10.312L169.709 9.31972L169.7 9.33547L169.691 9.35137L171.446 10.312ZM171.446 14.992L169.682 15.9353L169.687 15.944L169.691 15.9526L171.446 14.992ZM172.982 16.576L171.971 18.302L171.987 18.3113L172.003 18.3203L172.982 16.576ZM175.358 8.16C176.285 8.16 177.047 8.36149 177.696 8.72296L179.643 5.22904C178.34 4.50251 176.895 4.16 175.358 4.16V8.16ZM177.696 8.72296C178.347 9.08605 178.84 9.57829 179.203 10.2297L182.697 8.28228C181.972 6.98171 180.944 5.95395 179.643 5.22904L177.696 8.72296ZM179.215 10.2513C179.578 10.8847 179.79 11.6604 179.79 12.64H183.79C183.79 11.0596 183.441 9.57931 182.684 8.26066L179.215 10.2513ZM179.79 12.64C179.79 13.6189 179.579 14.4085 179.208 15.0648L182.691 17.0312C183.441 15.7035 183.79 14.2211 183.79 12.64H179.79ZM179.203 15.0743C178.84 15.7257 178.347 16.2179 177.696 16.581L179.643 20.075C180.944 19.3501 181.972 18.3223 182.697 17.0217L179.203 15.0743ZM177.696 16.581C177.047 16.9425 176.285 17.144 175.358 17.144V21.144C176.895 21.144 178.34 20.8015 179.643 20.075L177.696 16.581ZM175.358 17.144C174.71 17.144 174.157 17.0207 173.671 16.7979L172.004 20.4341C173.054 20.9153 174.181 21.144 175.358 21.144V17.144ZM173.686 16.8046C173.225 16.5892 172.831 16.2779 172.49 15.8444L169.345 18.3156C170.06 19.2261 170.946 19.9388 171.99 20.4274L173.686 16.8046ZM168.918 17.08V23.656H172.918V17.08H168.918ZM170.918 21.656H168.614V25.656H170.918V21.656ZM170.614 23.656V6.28H166.614V23.656H170.614ZM168.614 8.28H170.822V4.28H168.614V8.28ZM168.822 6.28V8.296H172.822V6.28H168.822ZM172.439 9.47234C172.749 9.04647 173.123 8.74382 173.585 8.53654L171.947 4.88746C170.84 5.38418 169.918 6.13753 169.204 7.11966L172.439 9.47234ZM173.616 8.52247C174.11 8.2902 174.681 8.16 175.358 8.16V4.16C174.147 4.16 172.989 4.3978 171.916 4.90153L173.616 8.52247ZM175.166 19.128C176.294 19.128 177.372 18.8701 178.347 18.3098L176.353 14.8422C176.047 15.0179 175.67 15.128 175.166 15.128V19.128ZM178.36 18.302C179.331 17.7335 180.099 16.9398 180.64 15.9526L177.131 14.0314C176.936 14.3882 176.68 14.6505 176.339 14.85L178.36 18.302ZM180.632 15.9667C181.201 14.9472 181.462 13.8206 181.462 12.64H177.462C177.462 13.2194 177.338 13.6608 177.139 14.0173L180.632 15.9667ZM181.462 12.64C181.462 11.4604 181.201 10.3334 180.622 9.31972L177.149 11.3043C177.338 11.6346 177.462 12.0596 177.462 12.64H181.462ZM180.649 9.36869C180.108 8.35751 179.33 7.54557 178.328 6.98371L176.371 10.4723C176.682 10.6464 176.927 10.8905 177.122 11.2553L180.649 9.36869ZM178.347 6.99419C177.372 6.43387 176.294 6.176 175.166 6.176V10.176C175.67 10.176 176.047 10.2861 176.353 10.4618L178.347 6.99419ZM175.166 6.176C174.03 6.176 172.95 6.45301 171.971 7.02597L173.992 10.478C174.325 10.283 174.701 10.176 175.166 10.176V6.176ZM171.985 7.01819C171.022 7.57201 170.261 8.3548 169.709 9.31972L173.182 11.3043C173.399 10.9252 173.662 10.668 173.979 10.4858L171.985 7.01819ZM169.691 9.35137C169.14 10.3591 168.894 11.4746 168.894 12.64H172.894C172.894 12.0454 173.016 11.6089 173.2 11.2726L169.691 9.35137ZM168.894 12.64C168.894 13.8065 169.14 14.9217 169.682 15.9353L173.209 14.0487C173.015 13.6863 172.894 13.2335 172.894 12.64H168.894ZM169.691 15.9526C170.232 16.9398 171 17.7335 171.971 18.302L173.992 14.85C173.651 14.6505 173.395 14.3882 173.2 14.0314L169.691 15.9526ZM172.003 18.3203C172.977 18.8666 174.046 19.128 175.166 19.128V15.128C174.686 15.128 174.298 15.0214 173.96 14.8317L172.003 18.3203ZM196.421 13.408V15.408H198.211L198.409 13.6289L196.421 13.408ZM186.101 13.408V11.408H183.827L184.117 13.663L186.101 13.408ZM187.565 16.12L186.291 17.6613L186.307 17.6746L186.323 17.6875L187.565 16.12ZM194.381 15.592L195.901 14.2924L194.425 12.5653L192.899 14.249L194.381 15.592ZM195.653 17.08L197.172 18.3816L198.286 17.0818L197.173 15.7804L195.653 17.08ZM193.493 18.616L192.738 16.7638L192.726 16.7688L193.493 18.616ZM187.061 18.328L186.113 20.0889L186.123 20.0946L186.134 20.1002L187.061 18.328ZM184.637 16L182.895 16.9832L182.901 16.9938L182.907 17.0043L184.637 16ZM184.613 9.304L182.871 8.32081L182.865 8.33154L182.859 8.34233L184.613 9.304ZM186.893 7L187.879 8.74007L187.888 8.73473L186.893 7ZM193.421 7L192.401 8.72011L192.418 8.73025L192.435 8.74004L193.421 7ZM195.653 9.304L193.888 10.2437L193.893 10.2547L193.899 10.2657L195.653 9.304ZM187.397 9.112L186.064 7.62069L186.056 7.62782L186.049 7.63503L187.397 9.112ZM186.101 11.752L184.115 11.5183L183.852 13.752H186.101V11.752ZM194.261 11.752V13.752H196.514L196.247 11.5149L194.261 11.752ZM192.941 9.136L191.575 10.5971L191.592 10.6124L191.608 10.6273L192.941 9.136ZM194.469 12.712C194.469 12.7825 194.462 12.9322 194.433 13.1871L198.409 13.6289C198.445 13.3078 198.469 12.9935 198.469 12.712H194.469ZM196.421 11.408H186.101V15.408H196.421V11.408ZM184.117 13.663C184.323 15.2607 185.048 16.634 186.291 17.6613L188.84 14.5787C188.418 14.23 188.167 13.7953 188.085 13.153L184.117 13.663ZM186.323 17.6875C187.577 18.6815 189.083 19.128 190.709 19.128V15.128C189.84 15.128 189.249 14.9025 188.807 14.5525L186.323 17.6875ZM190.709 19.128C192.731 19.128 194.516 18.4219 195.863 16.935L192.899 14.249C192.391 14.8101 191.727 15.128 190.709 15.128V19.128ZM192.861 16.8916L194.133 18.3796L197.173 15.7804L195.901 14.2924L192.861 16.8916ZM194.135 15.7784C193.777 16.1956 193.324 16.5252 192.738 16.7638L194.248 20.4682C195.39 20.0028 196.377 19.3084 197.172 18.3816L194.135 15.7784ZM192.726 16.7688C192.155 17.0059 191.469 17.144 190.637 17.144V21.144C191.917 21.144 193.135 20.9301 194.26 20.4632L192.726 16.7688ZM190.637 17.144C189.569 17.144 188.703 16.9297 187.988 16.5558L186.134 20.1002C187.499 20.8143 189.017 21.144 190.637 21.144V17.144ZM188.009 16.5671C187.284 16.1768 186.751 15.6583 186.367 14.9957L182.907 17.0043C183.675 18.3257 184.758 19.3592 186.113 20.0889L188.009 16.5671ZM186.379 15.0168C186.004 14.3529 185.797 13.5773 185.797 12.64H181.797C181.797 14.1987 182.15 15.6631 182.895 16.9832L186.379 15.0168ZM185.797 12.64C185.797 11.7135 185.998 10.9371 186.367 10.2657L182.859 8.34233C182.14 9.65486 181.797 11.1025 181.797 12.64H185.797ZM186.355 10.2872C186.742 9.60065 187.246 9.09905 187.879 8.74004L185.907 5.25996C184.621 5.98895 183.604 7.02335 182.871 8.32081L186.355 10.2872ZM187.888 8.73473C188.537 8.36246 189.285 8.16 190.181 8.16V4.16C188.645 4.16 187.201 4.51754 185.898 5.26527L187.888 8.73473ZM190.181 8.16C191.078 8.16 191.798 8.36261 192.401 8.72011L194.441 5.27989C193.156 4.51739 191.716 4.16 190.181 4.16V8.16ZM192.435 8.74004C193.058 9.0931 193.535 9.58056 193.888 10.2437L197.419 8.3643C196.716 7.04344 195.704 5.9949 194.407 5.25996L192.435 8.74004ZM193.899 10.2657C194.262 10.926 194.469 11.7234 194.469 12.712H198.469C198.469 11.1406 198.133 9.66602 197.407 8.34233L193.899 10.2657ZM190.181 6.104C188.636 6.104 187.219 6.58902 186.064 7.62069L188.73 10.6033C189.079 10.291 189.518 10.104 190.181 10.104V6.104ZM186.049 7.63503C184.921 8.66431 184.293 10.0037 184.115 11.5183L188.087 11.9857C188.165 11.3243 188.401 10.9037 188.746 10.589L186.049 7.63503ZM186.101 13.752H194.261V9.752H186.101V13.752ZM196.247 11.5149C196.066 9.99626 195.416 8.66528 194.274 7.64469L191.608 10.6273C191.97 10.9507 192.2 11.3637 192.275 11.9891L196.247 11.5149ZM194.307 7.67495C193.163 6.60615 191.739 6.104 190.181 6.104V10.104C190.831 10.104 191.247 10.2899 191.575 10.5971L194.307 7.67495ZM201.876 8.416H199.876L203.634 9.37103L201.876 8.416ZM203.652 6.736L202.773 4.93987L202.773 4.93987L203.652 6.736ZM206.508 6.16H208.508V4.16H206.508V6.16ZM206.508 8.392L206.26 10.3766L208.508 10.6576V8.392H206.508ZM203.028 9.496L201.584 8.11286L201.583 8.11355L203.028 9.496ZM201.972 19V21H203.972V19H201.972ZM199.668 19H197.668V21H199.668V19ZM199.668 6.28V4.28H197.668V6.28H199.668ZM201.876 6.28H203.876V4.28H201.876V6.28ZM203.634 9.37103C203.827 9.01567 204.104 8.74178 204.532 8.53212L202.773 4.93987C201.633 5.49822 200.726 6.34433 200.119 7.46097L203.634 9.37103ZM204.532 8.53212C204.976 8.31469 205.61 8.16 206.508 8.16V4.16C205.167 4.16 203.897 4.38931 202.773 4.93987L204.532 8.53212ZM204.508 6.16V8.392H208.508V6.16H204.508ZM206.756 6.40744C206.508 6.37635 206.237 6.368 205.98 6.368V10.368C206.07 10.368 206.139 10.3696 206.19 10.3719C206.243 10.3743 206.263 10.3769 206.26 10.3766L206.756 6.40744ZM205.98 6.368C204.304 6.368 202.755 6.88971 201.584 8.11286L204.473 10.8791C204.742 10.5983 205.161 10.368 205.98 10.368V6.368ZM201.583 8.11355C200.413 9.33667 199.972 10.9576 199.972 12.664H203.972C203.972 11.6184 204.236 11.1273 204.474 10.8784L201.583 8.11355ZM199.972 12.664V19H203.972V12.664H199.972ZM201.972 17H199.668V21H201.972V17ZM201.668 19V6.28H197.668V19H201.668ZM199.668 8.28H201.876V4.28H199.668V8.28ZM199.876 6.28V8.416H203.876V6.28H199.876ZM230.515 19L228.918 20.2038L229.518 21H230.515V19ZM226.843 14.128L228.44 12.9242L226.853 10.8188L225.253 12.9143L226.843 14.128ZM223.123 19V21H224.112L224.712 20.2137L223.123 19ZM220.555 19L218.971 17.7786L216.487 21H220.555V19ZM225.571 12.496L227.154 13.7174L228.095 12.4983L227.157 11.2775L225.571 12.496ZM220.795 6.28V4.28H216.736L219.209 7.49853L220.795 6.28ZM223.363 6.28L224.952 5.06541L224.351 4.28H223.363V6.28ZM226.867 10.864L225.278 12.0786L226.872 14.1644L228.46 12.0733L226.867 10.864ZM230.347 6.28V4.28H229.354L228.754 5.07068L230.347 6.28ZM232.867 6.28L234.45 7.50237L236.938 4.28H232.867V6.28ZM228.067 12.496L226.484 11.2736L225.536 12.5011L226.489 13.7247L228.067 12.496ZM233.131 19V21H237.223L234.709 17.7713L233.131 19ZM232.112 17.7962L228.44 12.9242L225.246 15.3318L228.918 20.2038L232.112 17.7962ZM225.253 12.9143L221.533 17.7863L224.712 20.2137L228.432 15.3417L225.253 12.9143ZM223.123 17H220.555V21H223.123V17ZM222.138 20.2214L227.154 13.7174L223.987 11.2746L218.971 17.7786L222.138 20.2214ZM227.157 11.2775L222.381 5.06147L219.209 7.49853L223.985 13.7145L227.157 11.2775ZM220.795 8.28H223.363V4.28H220.795V8.28ZM221.774 7.49459L225.278 12.0786L228.456 9.64941L224.952 5.06541L221.774 7.49459ZM228.46 12.0733L231.94 7.48932L228.754 5.07068L225.274 9.65468L228.46 12.0733ZM230.347 8.28H232.867V4.28H230.347V8.28ZM231.284 5.05763L226.484 11.2736L229.65 13.7184L234.45 7.50237L231.284 5.05763ZM226.489 13.7247L231.553 20.2287L234.709 17.7713L229.645 11.2673L226.489 13.7247ZM233.131 17H230.515V21H233.131V17ZM252.208 4.288H254.208V2.288H252.208V4.288ZM246.448 4.288H244.448V6.288H246.448V4.288ZM246.448 2.2V0.199999H244.448V2.2H246.448ZM260.344 2.2H262.344V0.199999H260.344V2.2ZM260.344 4.288V6.288H262.344V4.288H260.344ZM254.584 4.288V2.288H252.584V4.288H254.584ZM254.584 19V21H256.584V19H254.584ZM252.208 19H250.208V21H252.208V19ZM252.208 2.288H246.448V6.288H252.208V2.288ZM248.448 4.288V2.2H244.448V4.288H248.448ZM246.448 4.2H260.344V0.199999H246.448V4.2ZM258.344 2.2V4.288H262.344V2.2H258.344ZM260.344 2.288H254.584V6.288H260.344V2.288ZM252.584 4.288V19H256.584V4.288H252.584ZM254.584 17H252.208V21H254.584V17ZM254.208 19V4.288H250.208V19H254.208ZM272.757 13.408V15.408H274.547L274.745 13.6289L272.757 13.408ZM262.437 13.408V11.408H260.163L260.453 13.663L262.437 13.408ZM263.901 16.12L262.626 17.6613L262.643 17.6746L262.659 17.6875L263.901 16.12ZM270.717 15.592L272.237 14.2924L270.761 12.5653L269.235 14.249L270.717 15.592ZM271.989 17.08L273.508 18.3816L274.622 17.0818L273.509 15.7804L271.989 17.08ZM269.829 18.616L269.074 16.7638L269.062 16.7688L269.829 18.616ZM263.397 18.328L262.449 20.0889L262.459 20.0946L262.47 20.1002L263.397 18.328ZM260.973 16L259.231 16.9832L259.237 16.9938L259.243 17.0043L260.973 16ZM260.949 9.304L259.207 8.32081L259.201 8.33154L259.195 8.34233L260.949 9.304ZM263.229 7L264.215 8.74007L264.224 8.73473L263.229 7ZM269.757 7L268.737 8.72011L268.754 8.73025L268.771 8.74004L269.757 7ZM271.989 9.304L270.224 10.2437L270.229 10.2547L270.235 10.2657L271.989 9.304ZM263.733 9.112L262.4 7.62069L262.392 7.62782L262.384 7.63503L263.733 9.112ZM262.437 11.752L260.451 11.5183L260.188 13.752H262.437V11.752ZM270.597 11.752V13.752H272.85L272.583 11.5149L270.597 11.752ZM269.277 9.136L267.911 10.5971L267.928 10.6124L267.944 10.6273L269.277 9.136ZM270.805 12.712C270.805 12.7825 270.798 12.9322 270.769 13.1871L274.745 13.6289C274.78 13.3078 274.805 12.9935 274.805 12.712H270.805ZM272.757 11.408H262.437V15.408H272.757V11.408ZM260.453 13.663C260.659 15.2607 261.384 16.634 262.626 17.6613L265.176 14.5787C264.754 14.23 264.503 13.7953 264.421 13.153L260.453 13.663ZM262.659 17.6875C263.913 18.6815 265.419 19.128 267.045 19.128V15.128C266.175 15.128 265.585 14.9025 265.143 14.5525L262.659 17.6875ZM267.045 19.128C269.067 19.128 270.852 18.4219 272.199 16.935L269.235 14.249C268.726 14.8101 268.063 15.128 267.045 15.128V19.128ZM269.197 16.8916L270.469 18.3796L273.509 15.7804L272.237 14.2924L269.197 16.8916ZM270.47 15.7784C270.113 16.1956 269.66 16.5252 269.074 16.7638L270.584 20.4682C271.726 20.0028 272.713 19.3084 273.508 18.3816L270.47 15.7784ZM269.062 16.7688C268.491 17.0059 267.805 17.144 266.973 17.144V21.144C268.253 21.144 269.471 20.9301 270.596 20.4632L269.062 16.7688ZM266.973 17.144C265.905 17.144 265.039 16.9297 264.324 16.5558L262.47 20.1002C263.835 20.8143 265.353 21.144 266.973 21.144V17.144ZM264.345 16.5671C263.62 16.1768 263.087 15.6583 262.703 14.9957L259.243 17.0043C260.011 18.3257 261.094 19.3592 262.449 20.0889L264.345 16.5671ZM262.715 15.0168C262.34 14.3529 262.133 13.5773 262.133 12.64H258.133C258.133 14.1987 258.486 15.6631 259.231 16.9832L262.715 15.0168ZM262.133 12.64C262.133 11.7135 262.334 10.9371 262.703 10.2657L259.195 8.34233C258.476 9.65486 258.133 11.1025 258.133 12.64H262.133ZM262.691 10.2872C263.078 9.60065 263.581 9.09905 264.215 8.74004L262.243 5.25996C260.957 5.98895 259.94 7.02335 259.207 8.32081L262.691 10.2872ZM264.224 8.73473C264.873 8.36246 265.621 8.16 266.517 8.16V4.16C264.981 4.16 263.537 4.51754 262.234 5.26527L264.224 8.73473ZM266.517 8.16C267.414 8.16 268.134 8.36261 268.737 8.72011L270.777 5.27989C269.492 4.51739 268.052 4.16 266.517 4.16V8.16ZM268.771 8.74004C269.394 9.0931 269.871 9.58056 270.224 10.2437L273.754 8.3643C273.051 7.04344 272.04 5.9949 270.743 5.25996L268.771 8.74004ZM270.235 10.2657C270.597 10.926 270.805 11.7234 270.805 12.712H274.805C274.805 11.1406 274.469 9.66602 273.743 8.34233L270.235 10.2657ZM266.517 6.104C264.972 6.104 263.555 6.58902 262.4 7.62069L265.066 10.6033C265.415 10.291 265.854 10.104 266.517 10.104V6.104ZM262.384 7.63503C261.257 8.66431 260.629 10.0037 260.451 11.5183L264.423 11.9857C264.501 11.3243 264.737 10.9037 265.082 10.589L262.384 7.63503ZM262.437 13.752H270.597V9.752H262.437V13.752ZM272.583 11.5149C272.402 9.99626 271.752 8.66528 270.61 7.64469L267.944 10.6273C268.306 10.9507 268.536 11.3637 268.611 11.9891L272.583 11.5149ZM270.643 7.67495C269.499 6.60615 268.075 6.104 266.517 6.104V10.104C267.167 10.104 267.583 10.2899 267.911 10.5971L270.643 7.67495ZM278.068 18.304L277.097 20.0524L277.109 20.0587L278.068 18.304ZM275.692 16L273.963 17.0043L273.966 17.0104L273.97 17.0165L275.692 16ZM275.692 9.304L277.415 10.3205L277.418 10.3144L277.422 10.3083L275.692 9.304ZM278.068 7L279.018 8.76007L279.028 8.75474L278.068 7ZM284.62 6.856L283.701 8.63199L283.707 8.63529L283.713 8.63855L284.62 6.856ZM286.732 8.872L287.815 10.5536L289.401 9.53277L288.475 7.88997L286.732 8.872ZM284.98 10L283.309 11.0992L284.398 12.7536L286.063 11.6816L284.98 10ZM283.492 8.632L282.579 10.4111L282.579 10.4111L283.492 8.632ZM279.268 8.728L278.308 6.97381L278.299 6.97871L278.29 6.98371L279.268 8.728ZM277.708 10.312L275.962 9.33727L275.958 9.3443L275.954 9.35137L277.708 10.312ZM277.708 15.016L275.945 15.9593L275.958 15.984L275.972 16.0083L277.708 15.016ZM279.268 16.576L278.29 18.3203L278.299 18.3253L278.308 18.3302L279.268 16.576ZM284.98 15.304L286.047 13.6119L284.387 12.5664L283.309 14.2048L284.98 15.304ZM286.732 16.408L288.475 17.39L289.41 15.7311L287.799 14.7159L286.732 16.408ZM284.62 18.448L285.54 20.224L285.552 20.2178L284.62 18.448ZM281.548 17.144C280.55 17.144 279.726 16.9311 279.028 16.5493L277.109 20.0587C278.458 20.7969 279.955 21.144 281.548 21.144V17.144ZM279.04 16.5557C278.337 16.1653 277.807 15.6475 277.415 14.9835L273.97 17.0165C274.73 18.3045 275.784 19.3227 277.097 20.0523L279.04 16.5557ZM277.422 14.9957C277.038 14.3353 276.828 13.5672 276.828 12.64H272.828C272.828 14.2088 273.194 15.6807 273.963 17.0043L277.422 14.9957ZM276.828 12.64C276.828 11.7123 277.038 10.958 277.415 10.3205L273.97 8.28749C273.194 9.60198 272.828 11.0717 272.828 12.64H276.828ZM277.422 10.3083C277.813 9.63479 278.335 9.12858 279.018 8.76004L277.118 5.23996C275.785 5.95942 274.724 6.98921 273.963 8.29973L277.422 10.3083ZM279.028 8.75474C279.726 8.37286 280.55 8.16 281.548 8.16V4.16C279.955 4.16 278.458 4.50714 277.109 5.24526L279.028 8.75474ZM281.548 8.16C282.426 8.16 283.127 8.33484 283.701 8.63199L285.54 5.08001C284.322 4.44916 282.975 4.16 281.548 4.16V8.16ZM283.713 8.63855C284.279 8.92631 284.69 9.32205 284.99 9.85403L288.475 7.88997C287.782 6.66194 286.786 5.71369 285.527 5.07344L283.713 8.63855ZM285.65 7.19039L283.898 8.31839L286.063 11.6816L287.815 10.5536L285.65 7.19039ZM286.651 8.90077C286.08 8.03233 285.333 7.3289 284.406 6.85287L282.579 10.4111C282.836 10.5431 283.081 10.7517 283.309 11.0992L286.651 8.90077ZM284.406 6.85287C283.509 6.39203 282.535 6.176 281.524 6.176V10.176C281.953 10.176 282.292 10.264 282.579 10.4111L284.406 6.85287ZM281.524 6.176C280.386 6.176 279.299 6.43088 278.308 6.97381L280.229 10.4822C280.582 10.2891 280.998 10.176 281.524 10.176V6.176ZM278.29 6.98371C277.296 7.54119 276.517 8.34281 275.962 9.33727L279.455 11.2867C279.668 10.9052 279.929 10.6508 280.247 10.4723L278.29 6.98371ZM275.954 9.35137C275.402 10.3591 275.156 11.4746 275.156 12.64H279.156C279.156 12.0454 279.278 11.6089 279.463 11.2726L275.954 9.35137ZM275.156 12.64C275.156 13.8159 275.4 14.9406 275.945 15.9593L279.472 14.0727C279.281 13.7154 279.156 13.2561 279.156 12.64H275.156ZM275.972 16.0083C276.53 16.9854 277.308 17.7696 278.29 18.3203L280.247 14.8317C279.916 14.6464 279.654 14.3906 279.445 14.0237L275.972 16.0083ZM278.308 18.3302C279.299 18.8731 280.386 19.128 281.524 19.128V15.128C280.998 15.128 280.582 15.0149 280.229 14.8218L278.308 18.3302ZM281.524 19.128C282.535 19.128 283.509 18.912 284.406 18.4511L282.579 14.8929C282.292 15.04 281.953 15.128 281.524 15.128V19.128ZM284.406 18.4511C285.333 17.9751 286.08 17.2717 286.651 16.4032L283.309 14.2048C283.081 14.5523 282.836 14.7609 282.579 14.8929L284.406 18.4511ZM283.914 16.9961L285.666 18.1001L287.799 14.7159L286.047 13.6119L283.914 16.9961ZM284.99 15.426C284.687 15.9637 284.268 16.3735 283.689 16.6782L285.552 20.2178C286.797 19.5625 287.786 18.6123 288.475 17.39L284.99 15.426ZM283.701 16.672C283.127 16.9692 282.426 17.144 281.548 17.144V21.144C282.975 21.144 284.322 20.8548 285.54 20.224L283.701 16.672ZM300.183 7.576L298.769 8.99021L298.781 9.0022L298.793 9.01398L300.183 7.576ZM301.623 19V21H303.623V19H301.623ZM299.319 19H297.319V21H299.319V19ZM292.935 9.328L294.349 10.7422L294.357 10.7344L294.365 10.7266L292.935 9.328ZM291.855 19V21H293.855V19H291.855ZM289.551 19H287.551V21H289.551V19ZM289.551 1.192V-0.808001H287.551V1.192H289.551ZM291.855 1.192H293.855V-0.808001H291.855V1.192ZM291.855 8.08H289.855V13.841L293.425 9.31929L291.855 8.08ZM293.727 6.664L292.939 4.82571L292.932 4.82867L292.926 4.83168L293.727 6.664ZM296.343 8.16C297.548 8.16 298.277 8.49789 298.769 8.99021L301.597 6.16179C300.202 4.76611 298.37 4.16 296.343 4.16V8.16ZM298.793 9.01398C299.241 9.44658 299.623 10.2159 299.623 11.68H303.623C303.623 9.52811 303.046 7.56141 301.573 6.13802L298.793 9.01398ZM299.623 11.68V19H303.623V11.68H299.623ZM301.623 17H299.319V21H301.623V17ZM301.319 19V11.944H297.319V19H301.319ZM301.319 11.944C301.319 10.4208 300.954 8.9133 299.882 7.78348L296.98 10.5365C297.092 10.6547 297.319 11.0032 297.319 11.944H301.319ZM299.882 7.78348C298.813 6.6562 297.376 6.224 295.887 6.224V10.224C296.607 10.224 296.866 10.4158 296.98 10.5365L299.882 7.78348ZM295.887 6.224C294.223 6.224 292.679 6.72944 291.506 7.92941L294.365 10.7266C294.631 10.4546 295.055 10.224 295.887 10.224V6.224ZM291.521 7.91379C290.313 9.12143 289.855 10.7414 289.855 12.448H293.855C293.855 11.4346 294.117 10.9746 294.349 10.7422L291.521 7.91379ZM289.855 12.448V19H293.855V12.448H289.855ZM291.855 17H289.551V21H291.855V17ZM291.551 19V1.192H287.551V19H291.551ZM289.551 3.192H291.855V-0.808001H289.551V3.192ZM289.855 1.192V8.08H293.855V1.192H289.855ZM293.425 9.31929C293.685 8.98989 294.036 8.71178 294.529 8.49632L292.926 4.83168C291.882 5.28822 290.985 5.95411 290.285 6.84071L293.425 9.31929ZM294.515 8.50229C295.021 8.28559 295.62 8.16 296.343 8.16V4.16C295.146 4.16 294.002 4.37041 292.939 4.82571L294.515 8.50229ZM324.86 16.912H326.86V14.912H324.86V16.912ZM324.86 19V21H326.86V19H324.86ZM312.668 19H310.668V21H312.668V19ZM312.668 2.2V0.199999H310.668V2.2H312.668ZM324.524 2.2H326.524V0.199999H324.524V2.2ZM324.524 4.288V6.288H326.524V4.288H324.524ZM315.068 4.288V2.288H313.068V4.288H315.068ZM315.068 9.448H313.068V11.448H315.068V9.448ZM323.492 9.448H325.492V7.448H323.492V9.448ZM323.492 11.488V13.488H325.492V11.488H323.492ZM315.068 11.488V9.488H313.068V11.488H315.068ZM315.068 16.912H313.068V18.912H315.068V16.912ZM322.86 16.912V19H326.86V16.912H322.86ZM324.86 17H312.668V21H324.86V17ZM314.668 19V2.2H310.668V19H314.668ZM312.668 4.2H324.524V0.199999H312.668V4.2ZM322.524 2.2V4.288H326.524V2.2H322.524ZM324.524 2.288H315.068V6.288H324.524V2.288ZM313.068 4.288V9.448H317.068V4.288H313.068ZM315.068 11.448H323.492V7.448H315.068V11.448ZM321.492 9.448V11.488H325.492V9.448H321.492ZM323.492 9.488H315.068V13.488H323.492V9.488ZM313.068 11.488V16.912H317.068V11.488H313.068ZM315.068 18.912H324.86V14.912H315.068V18.912ZM339.043 7.576L337.628 8.99021L337.64 9.0022L337.653 9.01398L339.043 7.576ZM340.483 19V21H342.483V19H340.483ZM338.179 19H336.179V21H338.179V19ZM331.795 9.328L333.209 10.7422L333.217 10.7344L333.224 10.7266L331.795 9.328ZM330.715 19V21H332.715V19H330.715ZM328.411 19H326.411V21H328.411V19ZM328.411 6.28V4.28H326.411V6.28H328.411ZM330.619 6.28H332.619V4.28H330.619V6.28ZM330.619 8.2H328.619V14.491L332.251 9.35493L330.619 8.2ZM332.491 6.688L331.685 4.85737L331.678 4.86039L331.671 4.86346L332.491 6.688ZM335.203 8.16C336.407 8.16 337.136 8.49789 337.628 8.99021L340.457 6.16179C339.061 4.76611 337.23 4.16 335.203 4.16V8.16ZM337.653 9.01398C338.1 9.44658 338.483 10.2159 338.483 11.68H342.483C342.483 9.52811 341.905 7.56141 340.433 6.13802L337.653 9.01398ZM338.483 11.68V19H342.483V11.68H338.483ZM340.483 17H338.179V21H340.483V17ZM340.179 19V11.944H336.179V19H340.179ZM340.179 11.944C340.179 10.4208 339.813 8.9133 338.741 7.78348L335.84 10.5365C335.952 10.6547 336.179 11.0032 336.179 11.944H340.179ZM338.741 7.78348C337.672 6.6562 336.235 6.224 334.747 6.224V10.224C335.466 10.224 335.725 10.4158 335.84 10.5365L338.741 7.78348ZM334.747 6.224C333.083 6.224 331.539 6.72944 330.365 7.92941L333.224 10.7266C333.49 10.4546 333.914 10.224 334.747 10.224V6.224ZM330.38 7.91379C329.173 9.12143 328.715 10.7414 328.715 12.448H332.715C332.715 11.4346 332.976 10.9746 333.209 10.7422L330.38 7.91379ZM328.715 12.448V19H332.715V12.448H328.715ZM330.715 17H328.411V21H330.715V17ZM330.411 19V6.28H326.411V19H330.411ZM328.411 8.28H330.619V4.28H328.411V8.28ZM328.619 6.28V8.2H332.619V6.28H328.619ZM332.251 9.35493C332.495 9.01122 332.828 8.72865 333.31 8.51254L331.671 4.86346C330.585 5.35135 329.671 6.07678 328.986 7.04507L332.251 9.35493ZM333.296 8.51863C333.806 8.29416 334.43 8.16 335.203 8.16V4.16C333.959 4.16 332.775 4.37784 331.685 4.85737L333.296 8.51863ZM351.899 18.256L353.2 19.7745L354.322 18.8132L353.733 17.4585L351.899 18.256ZM350.651 18.928L351.208 20.8487L351.236 20.8405L351.265 20.8314L350.651 18.928ZM346.139 18.112L344.741 19.5424L344.741 19.5424L346.139 18.112ZM345.083 8.176H347.083V6.176H345.083V8.176ZM342.923 8.176H340.923V10.176H342.923V8.176ZM342.923 6.28V4.28H340.923V6.28H342.923ZM345.083 6.28V8.28H347.083V6.28H345.083ZM345.083 3.496V1.496H343.083V3.496H345.083ZM347.387 3.496H349.387V1.496H347.387V3.496ZM347.387 6.28H345.387V8.28H347.387V6.28ZM351.035 6.28H353.035V4.28H351.035V6.28ZM351.035 8.176V10.176H353.035V8.176H351.035ZM347.387 8.176V6.176H345.387V8.176H347.387ZM347.891 16.648L346.414 17.9965L346.429 18.0137L346.445 18.0304L347.891 16.648ZM351.179 16.6L353.013 15.8025L351.966 13.3955L349.923 15.0432L351.179 16.6ZM350.597 16.7375C350.495 16.825 350.324 16.9318 350.036 17.0246L351.265 20.8314C351.969 20.6042 352.63 20.263 353.2 19.7745L350.597 16.7375ZM350.093 17.0073C349.782 17.0975 349.458 17.144 349.115 17.144V21.144C349.827 21.144 350.527 21.0465 351.208 20.8487L350.093 17.0073ZM349.115 17.144C348.194 17.144 347.764 16.9045 347.536 16.6816L344.741 19.5424C345.921 20.6955 347.475 21.144 349.115 21.144V17.144ZM347.536 16.6816C347.324 16.4737 347.083 16.0707 347.083 15.16H343.083C343.083 16.8093 343.545 18.3743 344.741 19.5424L347.536 16.6816ZM347.083 15.16V8.176H343.083V15.16H347.083ZM345.083 6.176H342.923V10.176H345.083V6.176ZM344.923 8.176V6.28H340.923V8.176H344.923ZM342.923 8.28H345.083V4.28H342.923V8.28ZM347.083 6.28V3.496H343.083V6.28H347.083ZM345.083 5.496H347.387V1.496H345.083V5.496ZM345.387 3.496V6.28H349.387V3.496H345.387ZM347.387 8.28H351.035V4.28H347.387V8.28ZM349.035 6.28V8.176H353.035V6.28H349.035ZM351.035 6.176H347.387V10.176H351.035V6.176ZM345.387 8.176V15.064H349.387V8.176H345.387ZM345.387 15.064C345.387 16.0598 345.631 17.1397 346.414 17.9965L349.367 15.2995C349.415 15.3518 349.425 15.3892 349.418 15.3696C349.41 15.3424 349.387 15.2498 349.387 15.064H345.387ZM346.445 18.0304C347.266 18.8889 348.341 19.2 349.379 19.2V15.2C349.248 15.2 349.206 15.181 349.222 15.1869C349.231 15.19 349.249 15.198 349.273 15.2133C349.296 15.2288 349.318 15.2471 349.336 15.2656L346.445 18.0304ZM349.379 19.2C350.488 19.2 351.545 18.874 352.434 18.1568L349.923 15.0432C349.82 15.126 349.677 15.2 349.379 15.2V19.2ZM349.344 17.3975L350.064 19.0535L353.733 17.4585L353.013 15.8025L349.344 17.3975ZM365.316 7.576L363.902 8.99021L363.914 9.0022L363.926 9.01398L365.316 7.576ZM366.756 19V21H368.756V19H366.756ZM364.452 19H362.452V21H364.452V19ZM358.068 9.328L359.482 10.7422L359.49 10.7344L359.498 10.7266L358.068 9.328ZM356.988 19V21H358.988V19H356.988ZM354.684 19H352.684V21H354.684V19ZM354.684 1.192V-0.808001H352.684V1.192H354.684ZM356.988 1.192H358.988V-0.808001H356.988V1.192ZM356.988 8.08H354.988V13.841L358.558 9.31929L356.988 8.08ZM358.86 6.664L358.072 4.82571L358.065 4.82867L358.058 4.83168L358.86 6.664ZM361.476 8.16C362.681 8.16 363.409 8.49789 363.902 8.99021L366.73 6.16179C365.335 4.76611 363.503 4.16 361.476 4.16V8.16ZM363.926 9.01398C364.373 9.44658 364.756 10.2159 364.756 11.68H368.756C368.756 9.52811 368.179 7.56141 366.706 6.13802L363.926 9.01398ZM364.756 11.68V19H368.756V11.68H364.756ZM366.756 17H364.452V21H366.756V17ZM366.452 19V11.944H362.452V19H366.452ZM366.452 11.944C366.452 10.4208 366.087 8.9133 365.015 7.78348L362.113 10.5365C362.225 10.6547 362.452 11.0032 362.452 11.944H366.452ZM365.015 7.78348C363.945 6.6562 362.508 6.224 361.02 6.224V10.224C361.74 10.224 361.999 10.4158 362.113 10.5365L365.015 7.78348ZM361.02 6.224C359.356 6.224 357.812 6.72944 356.638 7.92941L359.498 10.7266C359.764 10.4546 360.188 10.224 361.02 10.224V6.224ZM356.654 7.91379C355.446 9.12143 354.988 10.7414 354.988 12.448H358.988C358.988 11.4346 359.25 10.9746 359.482 10.7422L356.654 7.91379ZM354.988 12.448V19H358.988V12.448H354.988ZM356.988 17H354.684V21H356.988V17ZM356.684 19V1.192H352.684V19H356.684ZM354.684 3.192H356.988V-0.808001H354.684V3.192ZM354.988 1.192V8.08H358.988V1.192H354.988ZM358.558 9.31929C358.818 8.98989 359.169 8.71178 359.662 8.49632L358.058 4.83168C357.015 5.28822 356.118 5.95411 355.418 6.84071L358.558 9.31929ZM359.648 8.50229C360.153 8.28559 360.753 8.16 361.476 8.16V4.16C360.279 4.16 359.135 4.37041 358.072 4.82571L359.648 8.50229ZM382.876 6.28H384.876V4.28H382.876V6.28ZM382.876 19V21H384.876V19H382.876ZM380.692 19H378.692V21H380.692V19ZM380.692 17.08H382.692V10.789L379.059 15.9251L380.692 17.08ZM378.844 18.616L379.692 20.4274L379.7 20.4235L379.708 20.4196L378.844 18.616ZM372.364 17.752L370.973 19.1896L370.98 19.1955L370.986 19.2014L372.364 17.752ZM370.9 6.28V4.28H368.9V6.28H370.9ZM373.204 6.28H375.204V4.28H373.204V6.28ZM374.092 16.144L372.624 17.5021L372.632 17.5114L372.641 17.5205L374.092 16.144ZM379.516 15.976L380.961 17.3584L380.961 17.3584L379.516 15.976ZM380.572 6.28V4.28H378.572V6.28H380.572ZM380.876 6.28V19H384.876V6.28H380.876ZM382.876 17H380.692V21H382.876V17ZM382.692 19V17.08H378.692V19H382.692ZM379.059 15.9251C378.804 16.2862 378.459 16.5825 377.98 16.8124L379.708 20.4196C380.764 19.9135 381.652 19.1858 382.325 18.2349L379.059 15.9251ZM377.996 16.8046C377.53 17.0228 376.998 17.144 376.372 17.144V21.144C377.537 21.144 378.654 20.9132 379.692 20.4274L377.996 16.8046ZM376.372 17.144C375.05 17.144 374.256 16.7917 373.742 16.3026L370.986 19.2014C372.423 20.5683 374.302 21.144 376.372 21.144V17.144ZM373.754 16.3144C373.288 15.8629 372.9 15.0747 372.9 13.6H368.9C368.9 15.7733 369.488 17.7531 370.973 19.1896L373.754 16.3144ZM372.9 13.6V6.28H368.9V13.6H372.9ZM370.9 8.28H373.204V4.28H370.9V8.28ZM371.204 6.28V13.336H375.204V6.28H371.204ZM371.204 13.336C371.204 14.8636 371.571 16.3639 372.624 17.5021L375.56 14.7859C375.429 14.6441 375.204 14.2724 375.204 13.336H371.204ZM372.641 17.5205C373.71 18.6478 375.147 19.08 376.636 19.08V15.08C375.916 15.08 375.657 14.8882 375.543 14.7675L372.641 17.5205ZM376.636 19.08C378.284 19.08 379.808 18.5645 380.961 17.3584L378.071 14.5936C377.816 14.8595 377.42 15.08 376.636 15.08V19.08ZM380.961 17.3584C382.123 16.1435 382.572 14.5455 382.572 12.856H378.572C378.572 13.8545 378.317 14.3365 378.071 14.5936L380.961 17.3584ZM382.572 12.856V6.28H378.572V12.856H382.572ZM380.572 8.28H382.876V4.28H380.572V8.28ZM387.91 18.736L387.335 20.6517L387.35 20.6561L387.365 20.6603L387.91 18.736ZM385.654 17.656L383.884 16.7245L383.112 18.1914L384.41 19.2222L385.654 17.656ZM386.614 15.832L387.777 14.2045L385.912 12.8725L384.844 14.9005L386.614 15.832ZM388.654 16.792L388.079 18.7077L388.079 18.7077L388.654 16.792ZM393.694 14.512L394.966 12.9681L394.966 12.9681L393.694 14.512ZM392.662 14.032L392.123 15.9579L392.167 15.9704L392.212 15.9808L392.662 14.032ZM390.934 13.672L391.27 11.7004L391.256 11.6981L391.243 11.696L390.934 13.672ZM388.414 13.12L387.796 15.0221L387.803 15.0243L387.81 15.0265L388.414 13.12ZM386.758 12.064L385.298 13.4303L385.298 13.4303L386.758 12.064ZM387.502 7.216L388.667 8.84163L388.676 8.83527L388.685 8.82881L387.502 7.216ZM395.998 7.312L397.758 8.26158L398.635 6.63616L397.085 5.63286L395.998 7.312ZM395.014 9.136L393.929 10.8158L395.747 11.9905L396.774 10.0856L395.014 9.136ZM389.11 8.608L388.05 6.912L388.05 6.912L389.11 8.608ZM388.774 10.864L390.054 9.32756L390.054 9.32756L388.774 10.864ZM389.83 11.392L389.31 13.3232L389.319 13.3257L389.328 13.328L389.83 11.392ZM391.63 11.776L391.262 13.7417L391.276 13.7445L391.291 13.7471L391.63 11.776ZM394.102 12.352L393.47 14.2494L393.498 14.2589L393.527 14.2677L394.102 12.352ZM395.734 13.36L397.196 11.9954L397.196 11.9954L395.734 13.36ZM394.918 18.136L396.052 19.7833L396.058 19.7794L394.918 18.136ZM390.91 17.144C390.047 17.144 389.231 17.0314 388.455 16.8117L387.365 20.6603C388.51 20.9846 389.694 21.144 390.91 21.144V17.144ZM388.485 16.8203C387.669 16.5757 387.176 16.3104 386.898 16.0898L384.41 19.2222C385.221 19.8656 386.231 20.3203 387.335 20.6517L388.485 16.8203ZM387.424 18.5875L388.384 16.7635L384.844 14.9005L383.884 16.7245L387.424 18.5875ZM385.452 17.4595C386.224 18.0111 387.112 18.4176 388.079 18.7077L389.229 14.8763C388.596 14.6864 388.124 14.4529 387.777 14.2045L385.452 17.4595ZM388.079 18.7077C389.061 19.0023 390.063 19.152 391.078 19.152V15.152C390.461 15.152 389.847 15.0617 389.229 14.8763L388.079 18.7077ZM391.078 19.152C392.211 19.152 393.384 19.0016 394.338 18.4565C395.46 17.8158 396.102 16.7246 396.102 15.424H392.102C392.102 15.4124 392.108 15.306 392.186 15.1723C392.221 15.1108 392.262 15.0628 392.298 15.0287C392.332 14.9958 392.355 14.9828 392.354 14.9835C392.345 14.9886 392.254 15.036 392.027 15.0793C391.803 15.1219 391.493 15.152 391.078 15.152V19.152ZM396.102 15.424C396.102 14.5034 395.744 13.6092 394.966 12.9681L392.423 16.0559C392.335 15.9832 392.24 15.871 392.174 15.7247C392.111 15.5834 392.102 15.4706 392.102 15.424H396.102ZM394.966 12.9681C394.409 12.5101 393.766 12.2343 393.112 12.0832L392.212 15.9808C392.39 16.0217 392.435 16.0659 392.423 16.0559L394.966 12.9681ZM393.201 12.1061C392.701 11.9658 392.044 11.8321 391.27 11.7004L390.599 15.6436C391.328 15.7679 391.824 15.8742 392.123 15.9579L393.201 12.1061ZM391.243 11.696C390.274 11.5446 389.543 11.3797 389.019 11.2135L387.81 15.0265C388.598 15.2763 389.546 15.4794 390.625 15.648L391.243 11.696ZM389.032 11.2179C388.717 11.1155 388.454 10.9492 388.219 10.6977L385.298 13.4303C385.99 14.1708 386.831 14.7085 387.796 15.0221L389.032 11.2179ZM388.219 10.6977C388.2 10.678 388.062 10.5309 388.062 9.976H384.062C384.062 11.2131 384.388 12.458 385.298 13.4303L388.219 10.6977ZM388.062 9.976C388.062 9.48786 388.216 9.16528 388.667 8.84163L386.337 5.59037C384.869 6.64272 384.062 8.16014 384.062 9.976H388.062ZM388.685 8.82881C389.198 8.4524 390.026 8.16 391.366 8.16V4.16C389.474 4.16 387.726 4.5716 386.319 5.60319L388.685 8.82881ZM391.366 8.16C392.049 8.16 392.737 8.24353 393.434 8.41442L394.387 4.52958C393.387 4.28447 392.379 4.16 391.366 4.16V8.16ZM393.434 8.41442C394.135 8.58654 394.607 8.79422 394.912 8.99114L397.085 5.63286C396.301 5.12578 395.381 4.77346 394.387 4.52958L393.434 8.41442ZM394.238 6.36242L393.254 8.18642L396.774 10.0856L397.758 8.26158L394.238 6.36242ZM396.1 7.45617C394.693 6.54754 393.081 6.128 391.342 6.128V10.128C392.419 10.128 393.255 10.3805 393.929 10.8158L396.1 7.45617ZM391.342 6.128C390.2 6.128 389.02 6.30587 388.05 6.912L390.17 10.304C390.224 10.2701 390.532 10.128 391.342 10.128V6.128ZM388.05 6.912C387.052 7.53555 386.342 8.55314 386.342 9.88H390.342C390.342 9.91096 390.338 9.96091 390.322 10.0229C390.305 10.0856 390.279 10.1462 390.246 10.1997C390.18 10.3092 390.123 10.3335 390.17 10.304L388.05 6.912ZM386.342 9.88C386.342 10.816 386.696 11.7358 387.494 12.4004L390.054 9.32756C390.137 9.39628 390.223 9.50123 390.281 9.63402C390.337 9.76106 390.342 9.85548 390.342 9.88H386.342ZM387.494 12.4004C388.035 12.8511 388.657 13.1473 389.31 13.3232L390.35 9.46077C390.172 9.41271 390.09 9.3569 390.054 9.32756L387.494 12.4004ZM389.328 13.328C389.825 13.4568 390.477 13.5946 391.262 13.7417L391.999 9.81025C391.248 9.66944 390.699 9.55118 390.332 9.45601L389.328 13.328ZM391.291 13.7471C392.266 13.9146 392.98 14.0861 393.47 14.2494L394.735 10.4546C393.976 10.2019 393.043 9.98943 391.969 9.8049L391.291 13.7471ZM393.527 14.2677C393.834 14.3597 394.07 14.5084 394.272 14.7246L397.196 11.9954C396.502 11.2516 395.65 10.7283 394.677 10.4363L393.527 14.2677ZM394.272 14.7246C394.277 14.7295 394.406 14.8542 394.406 15.376H398.406C398.406 14.1698 398.088 12.9505 397.196 11.9954L394.272 14.7246ZM394.406 15.376C394.406 15.8359 394.262 16.157 393.778 16.4926L396.058 19.7794C397.558 18.739 398.406 17.2201 398.406 15.376H394.406ZM393.784 16.4887C393.257 16.8515 392.369 17.144 390.91 17.144V21.144C392.844 21.144 394.627 20.7645 396.052 19.7833L393.784 16.4887ZM399.286 6.28V4.28H397.286V6.28H399.286ZM401.59 6.28H403.59V4.28H401.59V6.28ZM401.59 19V21H403.59V19H401.59ZM399.286 19H397.286V21H399.286V19ZM399.31 3.4L397.895 4.81421L397.914 4.83332L397.934 4.8519L399.31 3.4ZM399.31 1.288L397.895 -0.126215L397.895 -0.126214L399.31 1.288ZM401.542 1.264L400.127 2.67821L400.167 2.71747L400.208 2.75448L401.542 1.264ZM401.542 3.4L400.127 1.98579L400.127 1.98579L401.542 3.4ZM399.286 8.28H401.59V4.28H399.286V8.28ZM399.59 6.28V19H403.59V6.28H399.59ZM401.59 17H399.286V21H401.59V17ZM401.286 19V6.28H397.286V19H401.286ZM400.438 1.832C400.431 1.832 400.47 1.83152 400.535 1.85629C400.602 1.88196 400.654 1.91887 400.685 1.94809L397.934 4.8519C398.637 5.51793 399.517 5.832 400.438 5.832V1.832ZM400.724 1.98579C400.754 2.01611 400.801 2.07586 400.837 2.16273C400.872 2.24876 400.878 2.31679 400.878 2.344H396.878C396.878 3.27772 397.223 4.14225 397.895 4.81421L400.724 1.98579ZM400.878 2.344C400.878 2.37121 400.872 2.43924 400.837 2.52526C400.801 2.61214 400.754 2.67189 400.724 2.70221L397.895 -0.126214C397.223 0.545752 396.878 1.41028 396.878 2.344H400.878ZM400.724 2.70221C400.698 2.72842 400.645 2.76967 400.569 2.80022C400.495 2.8301 400.444 2.832 400.438 2.832V-1.168C399.484 -1.168 398.592 -0.822517 397.895 -0.126215L400.724 2.70221ZM400.438 2.832C400.445 2.832 400.398 2.83268 400.321 2.80248C400.24 2.77083 400.172 2.72318 400.127 2.67821L402.956 -0.150214C402.253 -0.852557 401.358 -1.168 400.438 -1.168V2.832ZM400.208 2.75448C400.166 2.71717 400.103 2.64377 400.054 2.53433C400.006 2.42585 399.998 2.33666 399.998 2.296H403.998C403.998 1.32386 403.613 0.433421 402.875 -0.226485L400.208 2.75448ZM399.998 2.296C399.998 2.27246 400.003 2.21052 400.035 2.13248C400.067 2.05425 400.108 2.00499 400.127 1.98579L402.956 4.81421C403.637 4.1331 403.998 3.25554 403.998 2.296H399.998ZM400.127 1.98579C400.172 1.94082 400.24 1.89317 400.321 1.86151C400.398 1.83132 400.445 1.832 400.438 1.832V5.832C401.358 5.832 402.253 5.51656 402.956 4.81421L400.127 1.98579ZM414.653 7.456L413.29 8.91979L413.296 8.92559L413.302 8.93134L414.653 7.456ZM416.069 19V21H418.069V19H416.069ZM413.885 19H411.885V21H413.885V19ZM413.885 17.32H415.885V10.5615L412.207 16.2316L413.885 17.32ZM412.229 18.688L413.022 20.5241L413.031 20.5199L413.041 20.5156L412.229 18.688ZM406.277 18.112L405.017 19.6651L405.024 19.6709L405.031 19.6766L406.277 18.112ZM406.229 12.712L407.5 14.2559L407.509 14.2485L407.518 14.241L406.229 12.712ZM413.765 11.68V13.68H415.765V11.68H413.765ZM412.901 8.944L414.252 7.46969L414.252 7.46969L412.901 8.944ZM408.149 8.536L408.781 10.4334L408.8 10.4271L408.819 10.4204L408.149 8.536ZM406.325 9.52L404.576 10.4913L405.753 12.6096L407.61 11.0524L406.325 9.52ZM405.365 7.792L404.111 6.23398L402.798 7.29042L403.616 8.76329L405.365 7.792ZM407.717 6.592L408.288 8.50857L408.304 8.50399L408.319 8.49916L407.717 6.592ZM412.373 16.792L413.402 18.507L413.417 18.4976L413.433 18.488L412.373 16.792ZM413.765 15.112L415.622 15.8548L415.765 15.4972V15.112H413.765ZM413.765 13.336H415.765V11.336H413.765V13.336ZM410.621 8.16C412.073 8.16 412.855 8.51489 413.29 8.91979L416.016 5.99221C414.594 4.66911 412.689 4.16 410.621 4.16V8.16ZM413.302 8.93134C413.706 9.30057 414.069 9.97076 414.069 11.32H418.069C418.069 9.24524 417.488 7.33943 416.003 5.98065L413.302 8.93134ZM414.069 11.32V19H418.069V11.32H414.069ZM416.069 17H413.885V21H416.069V17ZM415.885 19V17.32H411.885V19H415.885ZM412.207 16.2316C412.058 16.4614 411.825 16.6788 411.416 16.8604L413.041 20.5156C414.072 20.0572 414.944 19.3626 415.563 18.4084L412.207 16.2316ZM411.436 16.8519C411.04 17.0226 410.484 17.144 409.709 17.144V21.144C410.886 21.144 412.009 20.9614 413.022 20.5241L411.436 16.8519ZM409.709 17.144C408.605 17.144 407.941 16.8808 407.523 16.5474L405.031 19.6766C406.34 20.7192 407.965 21.144 409.709 21.144V17.144ZM407.537 16.5589C407.171 16.2618 407.005 15.9352 407.005 15.4H403.005C403.005 17.1048 403.687 18.5862 405.017 19.6651L407.537 16.5589ZM407.005 15.4C407.005 14.8368 407.176 14.5228 407.5 14.2559L404.957 11.1681C403.649 12.2452 403.005 13.7232 403.005 15.4H407.005ZM407.518 14.241C407.801 14.0025 408.523 13.68 410.117 13.68V9.68C408.158 9.68 406.289 10.0455 404.939 11.183L407.518 14.241ZM410.117 13.68H413.765V9.68H410.117V13.68ZM415.765 11.68V11.224H411.765V11.68H415.765ZM415.765 11.224C415.765 9.8324 415.347 8.47312 414.252 7.46969L411.549 10.4183C411.607 10.4709 411.765 10.6316 411.765 11.224H415.765ZM414.252 7.46969C413.174 6.48184 411.762 6.152 410.357 6.152V10.152C411.192 10.152 411.475 10.3502 411.549 10.4183L414.252 7.46969ZM410.357 6.152C409.373 6.152 408.41 6.32035 407.479 6.65157L408.819 10.4204C409.327 10.2397 409.837 10.152 410.357 10.152V6.152ZM407.516 6.63863C406.598 6.94469 405.758 7.3847 405.039 7.98762L407.61 11.0524C407.883 10.8233 408.259 10.6073 408.781 10.4334L407.516 6.63863ZM408.073 8.54871L407.113 6.82071L403.616 8.76329L404.576 10.4913L408.073 8.54871ZM406.619 9.35002C407.048 9.00448 407.593 8.71605 408.288 8.50857L407.145 4.67542C406.017 5.01195 404.993 5.52352 404.111 6.23398L406.619 9.35002ZM408.319 8.49916C409.023 8.27689 409.787 8.16 410.621 8.16V4.16C409.407 4.16 408.235 4.33111 407.114 4.68483L408.319 8.49916ZM410.093 19.368C411.27 19.368 412.399 19.1085 413.402 18.507L411.344 15.077C411.066 15.2435 410.676 15.368 410.093 15.368V19.368ZM413.433 18.488C414.443 17.8564 415.181 16.9575 415.622 15.8548L411.908 14.3692C411.773 14.7065 411.582 14.9276 411.313 15.096L413.433 18.488ZM415.765 15.112V13.336H411.765V15.112H415.765ZM413.765 11.336H410.213V15.336H413.765V11.336ZM410.213 11.336C409.076 11.336 407.872 11.5157 406.901 12.1681C405.789 12.9154 405.285 14.0723 405.285 15.304H409.285C409.285 15.2249 409.299 15.2527 409.259 15.3316C409.216 15.4191 409.156 15.4721 409.132 15.4879C409.122 15.4948 409.181 15.4527 409.369 15.4106C409.556 15.3687 409.83 15.336 410.213 15.336V11.336ZM405.285 15.304C405.285 16.5502 405.811 17.6611 406.837 18.4222L409.22 15.2098C409.208 15.2008 409.212 15.2021 409.225 15.2164C409.237 15.2313 409.252 15.2528 409.265 15.279C409.278 15.305 409.284 15.3254 409.286 15.3348C409.288 15.3433 409.285 15.3347 409.285 15.304H405.285ZM406.837 18.4222C407.797 19.1342 408.96 19.368 410.093 19.368V15.368C409.465 15.368 409.253 15.2338 409.22 15.2098L406.837 18.4222ZM420.98 18.736L420.406 20.6517L420.42 20.6561L420.435 20.6603L420.98 18.736ZM418.724 17.656L416.955 16.7245L416.183 18.1914L417.481 19.2222L418.724 17.656ZM419.684 15.832L420.847 14.2045L418.982 12.8725L417.915 14.9005L419.684 15.832ZM421.724 16.792L421.15 18.7077L421.15 18.7077L421.724 16.792ZM426.764 14.512L428.036 12.9681L428.036 12.9681L426.764 14.512ZM425.732 14.032L425.193 15.9579L425.238 15.9704L425.283 15.9808L425.732 14.032ZM424.004 13.672L424.34 11.7004L424.327 11.6981L424.313 11.696L424.004 13.672ZM421.484 13.12L420.866 15.0221L420.873 15.0243L420.88 15.0265L421.484 13.12ZM419.828 12.064L418.368 13.4303L418.368 13.4303L419.828 12.064ZM420.572 7.216L421.737 8.84163L421.746 8.83527L421.755 8.82881L420.572 7.216ZM429.068 7.312L430.829 8.26158L431.706 6.63616L430.155 5.63286L429.068 7.312ZM428.084 9.136L426.999 10.8158L428.817 11.9905L429.845 10.0856L428.084 9.136ZM422.18 8.608L421.12 6.912L421.12 6.912L422.18 8.608ZM421.844 10.864L423.125 9.32756L423.125 9.32756L421.844 10.864ZM422.9 11.392L422.38 13.3232L422.389 13.3257L422.399 13.328L422.9 11.392ZM424.7 11.776L424.332 13.7417L424.347 13.7445L424.362 13.7471L424.7 11.776ZM427.172 12.352L426.54 14.2494L426.569 14.2589L426.598 14.2677L427.172 12.352ZM428.804 13.36L430.267 11.9954L430.267 11.9954L428.804 13.36ZM427.988 18.136L429.123 19.7833L429.128 19.7794L427.988 18.136ZM423.98 17.144C423.117 17.144 422.301 17.0314 421.526 16.8117L420.435 20.6603C421.58 20.9846 422.764 21.144 423.98 21.144V17.144ZM421.555 16.8203C420.74 16.5757 420.246 16.3104 419.968 16.0898L417.481 19.2222C418.291 19.8656 419.301 20.3203 420.406 20.6517L421.555 16.8203ZM420.494 18.5875L421.454 16.7635L417.915 14.9005L416.955 16.7245L420.494 18.5875ZM418.522 17.4595C419.294 18.0111 420.183 18.4176 421.15 18.7077L422.299 14.8763C421.666 14.6864 421.195 14.4529 420.847 14.2045L418.522 17.4595ZM421.15 18.7077C422.132 19.0023 423.133 19.152 424.148 19.152V15.152C423.532 15.152 422.917 15.0617 422.299 14.8763L421.15 18.7077ZM424.148 19.152C425.281 19.152 426.455 19.0016 427.409 18.4565C428.53 17.8158 429.172 16.7246 429.172 15.424H425.172C425.172 15.4124 425.178 15.306 425.256 15.1723C425.292 15.1108 425.332 15.0628 425.368 15.0287C425.402 14.9958 425.425 14.9828 425.424 14.9835C425.415 14.9886 425.324 15.036 425.097 15.0793C424.874 15.1219 424.563 15.152 424.148 15.152V19.152ZM429.172 15.424C429.172 14.5034 428.814 13.6092 428.036 12.9681L425.493 16.0559C425.405 15.9832 425.31 15.871 425.245 15.7247C425.182 15.5834 425.172 15.4706 425.172 15.424H429.172ZM428.036 12.9681C427.48 12.5101 426.837 12.2343 426.182 12.0832L425.283 15.9808C425.46 16.0217 425.505 16.0659 425.493 16.0559L428.036 12.9681ZM426.272 12.1061C425.771 11.9658 425.114 11.8321 424.34 11.7004L423.669 15.6436C424.399 15.7679 424.894 15.8742 425.193 15.9579L426.272 12.1061ZM424.313 11.696C423.345 11.5446 422.613 11.3797 422.089 11.2135L420.88 15.0265C421.668 15.2763 422.616 15.4794 423.696 15.648L424.313 11.696ZM422.103 11.2179C421.787 11.1155 421.524 10.9492 421.289 10.6977L418.368 13.4303C419.061 14.1708 419.902 14.7085 420.866 15.0221L422.103 11.2179ZM421.289 10.6977C421.271 10.678 421.132 10.5309 421.132 9.976H417.132C417.132 11.2131 417.458 12.458 418.368 13.4303L421.289 10.6977ZM421.132 9.976C421.132 9.48786 421.286 9.16528 421.737 8.84163L419.407 5.59037C417.939 6.64272 417.132 8.16014 417.132 9.976H421.132ZM421.755 8.82881C422.268 8.4524 423.096 8.16 424.436 8.16V4.16C422.545 4.16 420.796 4.5716 419.39 5.60319L421.755 8.82881ZM424.436 8.16C425.119 8.16 425.807 8.24353 426.504 8.41442L427.457 4.52958C426.458 4.28447 425.45 4.16 424.436 4.16V8.16ZM426.504 8.41442C427.206 8.58654 427.678 8.79422 427.982 8.99114L430.155 5.63286C429.371 5.12578 428.451 4.77346 427.457 4.52958L426.504 8.41442ZM427.308 6.36242L426.324 8.18642L429.845 10.0856L430.829 8.26158L427.308 6.36242ZM429.17 7.45617C427.764 6.54754 426.151 6.128 424.412 6.128V10.128C425.49 10.128 426.325 10.3805 426.999 10.8158L429.17 7.45617ZM424.412 6.128C423.271 6.128 422.09 6.30587 421.12 6.912L423.24 10.304C423.295 10.2701 423.602 10.128 424.412 10.128V6.128ZM421.12 6.912C420.123 7.53555 419.412 8.55314 419.412 9.88H423.412C423.412 9.91096 423.408 9.96091 423.392 10.0229C423.375 10.0856 423.349 10.1462 423.317 10.1997C423.25 10.3092 423.193 10.3335 423.24 10.304L421.12 6.912ZM419.412 9.88C419.412 10.816 419.766 11.7358 420.564 12.4004L423.125 9.32756C423.207 9.39628 423.293 9.50123 423.352 9.63402C423.408 9.76106 423.412 9.85548 423.412 9.88H419.412ZM420.564 12.4004C421.105 12.8511 421.727 13.1473 422.38 13.3232L423.42 9.46077C423.242 9.41271 423.16 9.3569 423.125 9.32756L420.564 12.4004ZM422.399 13.328C422.895 13.4568 423.547 13.5946 424.332 13.7417L425.069 9.81025C424.318 9.66944 423.769 9.55118 423.402 9.45601L422.399 13.328ZM424.362 13.7471C425.336 13.9146 426.05 14.0861 426.54 14.2494L427.805 10.4546C427.047 10.2019 426.113 9.98943 425.039 9.8049L424.362 13.7471ZM426.598 14.2677C426.905 14.3597 427.141 14.5084 427.342 14.7246L430.267 11.9954C429.572 11.2516 428.72 10.7283 427.747 10.4363L426.598 14.2677ZM427.342 14.7246C427.347 14.7295 427.476 14.8542 427.476 15.376H431.476C431.476 14.1698 431.158 12.9505 430.267 11.9954L427.342 14.7246ZM427.476 15.376C427.476 15.8359 427.333 16.157 426.849 16.4926L429.128 19.7794C430.628 18.739 431.476 17.2201 431.476 15.376H427.476ZM426.854 16.4887C426.327 16.8515 425.439 17.144 423.98 17.144V21.144C425.914 21.144 427.698 20.7645 429.123 19.7833L426.854 16.4887ZM439.508 18.256L440.809 19.7745L441.931 18.8132L441.342 17.4585L439.508 18.256ZM438.26 18.928L438.817 20.8487L438.846 20.8405L438.874 20.8314L438.26 18.928ZM433.748 18.112L432.35 19.5424L432.35 19.5424L433.748 18.112ZM432.692 8.176H434.692V6.176H432.692V8.176ZM430.532 8.176H428.532V10.176H430.532V8.176ZM430.532 6.28V4.28H428.532V6.28H430.532ZM432.692 6.28V8.28H434.692V6.28H432.692ZM432.692 3.496V1.496H430.692V3.496H432.692ZM434.996 3.496H436.996V1.496H434.996V3.496ZM434.996 6.28H432.996V8.28H434.996V6.28ZM438.644 6.28H440.644V4.28H438.644V6.28ZM438.644 8.176V10.176H440.644V8.176H438.644ZM434.996 8.176V6.176H432.996V8.176H434.996ZM435.5 16.648L434.023 17.9965L434.039 18.0137L434.055 18.0304L435.5 16.648ZM438.788 16.6L440.622 15.8025L439.575 13.3955L437.532 15.0432L438.788 16.6ZM438.206 16.7375C438.104 16.825 437.934 16.9318 437.646 17.0246L438.874 20.8314C439.578 20.6042 440.24 20.263 440.809 19.7745L438.206 16.7375ZM437.702 17.0073C437.391 17.0975 437.067 17.144 436.724 17.144V21.144C437.436 21.144 438.136 21.0465 438.817 20.8487L437.702 17.0073ZM436.724 17.144C435.803 17.144 435.374 16.9045 435.146 16.6816L432.35 19.5424C433.53 20.6955 435.084 21.144 436.724 21.144V17.144ZM435.146 16.6816C434.933 16.4737 434.692 16.0707 434.692 15.16H430.692C430.692 16.8093 431.155 18.3743 432.35 19.5424L435.146 16.6816ZM434.692 15.16V8.176H430.692V15.16H434.692ZM432.692 6.176H430.532V10.176H432.692V6.176ZM432.532 8.176V6.28H428.532V8.176H432.532ZM430.532 8.28H432.692V4.28H430.532V8.28ZM434.692 6.28V3.496H430.692V6.28H434.692ZM432.692 5.496H434.996V1.496H432.692V5.496ZM432.996 3.496V6.28H436.996V3.496H432.996ZM434.996 8.28H438.644V4.28H434.996V8.28ZM436.644 6.28V8.176H440.644V6.28H436.644ZM438.644 6.176H434.996V10.176H438.644V6.176ZM432.996 8.176V15.064H436.996V8.176H432.996ZM432.996 15.064C432.996 16.0598 433.241 17.1397 434.023 17.9965L436.977 15.2995C437.025 15.3518 437.034 15.3892 437.028 15.3696C437.019 15.3424 436.996 15.2498 436.996 15.064H432.996ZM434.055 18.0304C434.876 18.8889 435.951 19.2 436.988 19.2V15.2C436.857 15.2 436.816 15.181 436.831 15.1869C436.84 15.19 436.858 15.198 436.882 15.2133C436.906 15.2288 436.927 15.2471 436.945 15.2656L434.055 18.0304ZM436.988 19.2C438.098 19.2 439.154 18.874 440.043 18.1568L437.532 15.0432C437.43 15.126 437.286 15.2 436.988 15.2V19.2ZM436.954 17.3975L437.674 19.0535L441.342 17.4585L440.622 15.8025L436.954 17.3975Z" fill="#FF9417"/>
</g>
<defs>
<filter id="filter0_d_44_18" x="0.151978" y="0.832031" width="443.356" height="30.824" filterUnits="userSpaceOnUse" color-interpolation-filters="sRGB">
<feFlood flood-opacity="0" result="BackgroundImageFix"/>
<feColorMatrix in="SourceAlpha" type="matrix" values="0 0 0 0 0 0 0 0 0 0 0 0 0 0 0 0 0 0 127 0" result="hardAlpha"/>
<feOffset dy="4"/>
<feGaussianBlur stdDeviation="2"/>
<feComposite in2="hardAlpha" operator="out"/>
<feColorMatrix type="matrix" values="0 0 0 0 0 0 0 0 0 0 0 0 0 0 0 0 0 0 0.25 0"/>
<feBlend mode="normal" in2="BackgroundImageFix" result="effect1_dropShadow_44_18"/>
<feBlend mode="normal" in="SourceGraphic" in2="effect1_dropShadow_44_18" result="shape"/>
</filter>
</defs>
</svg>
