<svg width="537" height="165" viewBox="0 0 537 165" fill="none" xmlns="http://www.w3.org/2000/svg">
<g filter="url(#filter0_d_3_4)">
<path d="M51.328 3.6V54H46.072V30.744H14.536V54H9.208V3.6H14.536V26.064H46.072V3.6H51.328ZM99.6743 36.648H67.9943C68.2823 40.584 69.7943 43.776 72.5303 46.224C75.2663 48.624 78.7223 49.824 82.8983 49.824C85.2503 49.824 87.4103 49.416 89.3783 48.6C91.3463 47.736 93.0503 46.488 94.4903 44.856L97.3703 48.168C95.6903 50.184 93.5783 51.72 91.0343 52.776C88.5383 53.832 85.7783 54.36 82.7543 54.36C78.8663 54.36 75.4103 53.544 72.3863 51.912C69.4103 50.232 67.0823 47.928 65.4023 45C63.7223 42.072 62.8823 38.76 62.8823 35.064C62.8823 31.368 63.6743 28.056 65.2583 25.128C66.8903 22.2 69.0983 19.92 71.8823 18.288C74.7143 16.656 77.8823 15.84 81.3863 15.84C84.8903 15.84 88.0343 16.656 90.8183 18.288C93.6023 19.92 95.7863 22.2 97.3703 25.128C98.9543 28.008 99.7463 31.32 99.7463 35.064L99.6743 36.648ZM81.3863 20.232C77.7383 20.232 74.6663 21.408 72.1703 23.76C69.7223 26.064 68.3303 29.088 67.9943 32.832H94.8503C94.5143 29.088 93.0983 26.064 90.6023 23.76C88.1543 21.408 85.0823 20.232 81.3863 20.232ZM110.151 0.575997H115.263V54H110.151V0.575997ZM129.487 0.575997H134.599V54H129.487V0.575997ZM164.303 54.36C160.655 54.36 157.367 53.544 154.439 51.912C151.511 50.232 149.207 47.928 147.527 45C145.847 42.072 145.007 38.76 145.007 35.064C145.007 31.368 145.847 28.056 147.527 25.128C149.207 22.2 151.511 19.92 154.439 18.288C157.367 16.656 160.655 15.84 164.303 15.84C167.951 15.84 171.239 16.656 174.167 18.288C177.095 19.92 179.375 22.2 181.007 25.128C182.687 28.056 183.527 31.368 183.527 35.064C183.527 38.76 182.687 42.072 181.007 45C179.375 47.928 177.095 50.232 174.167 51.912C171.239 53.544 167.951 54.36 164.303 54.36ZM164.303 49.824C166.991 49.824 169.391 49.224 171.503 48.024C173.663 46.776 175.343 45.024 176.543 42.768C177.743 40.512 178.343 37.944 178.343 35.064C178.343 32.184 177.743 29.616 176.543 27.36C175.343 25.104 173.663 23.376 171.503 22.176C169.391 20.928 166.991 20.304 164.303 20.304C161.615 20.304 159.191 20.928 157.031 22.176C154.919 23.376 153.239 25.104 151.991 27.36C150.791 29.616 150.191 32.184 150.191 35.064C150.191 37.944 150.791 40.512 151.991 42.768C153.239 45.024 154.919 46.776 157.031 48.024C159.191 49.224 161.615 49.824 164.303 49.824ZM193.485 46.512C194.589 46.512 195.501 46.896 196.221 47.664C196.941 48.384 197.301 49.296 197.301 50.4C197.301 50.976 197.205 51.6 197.013 52.272C196.869 52.944 196.629 53.712 196.293 54.576L193.269 64.512H189.813L192.261 54.072C191.493 53.832 190.869 53.4 190.389 52.776C189.909 52.104 189.669 51.312 189.669 50.4C189.669 49.296 190.029 48.384 190.749 47.664C191.469 46.896 192.381 46.512 193.485 46.512ZM228.091 3.6H233.419V54H228.091V3.6ZM249.313 0.215997C250.417 0.215997 251.329 0.599998 252.049 1.368C252.769 2.088 253.129 3 253.129 4.104C253.129 4.68 253.033 5.304 252.841 5.976C252.697 6.6 252.481 7.344 252.193 8.208L249.097 18.144H245.641L248.161 7.776C247.345 7.536 246.697 7.104 246.217 6.48C245.737 5.808 245.497 5.016 245.497 4.104C245.497 2.952 245.857 2.016 246.577 1.296C247.297 0.575997 248.209 0.215997 249.313 0.215997ZM311.227 15.84C315.979 15.84 319.699 17.208 322.387 19.944C325.123 22.68 326.491 26.712 326.491 32.04V54H321.379V32.544C321.379 28.608 320.419 25.608 318.499 23.544C316.627 21.48 313.963 20.448 310.507 20.448C306.571 20.448 303.475 21.672 301.219 24.12C298.963 26.52 297.835 29.856 297.835 34.128V54H292.723V32.544C292.723 28.608 291.763 25.608 289.843 23.544C287.971 21.48 285.283 20.448 281.779 20.448C277.891 20.448 274.795 21.672 272.491 24.12C270.235 26.52 269.107 29.856 269.107 34.128V54H263.995V16.128H268.891V23.04C270.235 20.736 272.107 18.96 274.507 17.712C276.907 16.464 279.667 15.84 282.787 15.84C285.955 15.84 288.691 16.512 290.995 17.856C293.347 19.2 295.099 21.192 296.251 23.832C297.643 21.336 299.635 19.392 302.227 18C304.867 16.56 307.867 15.84 311.227 15.84ZM44.704 116.8H49.816V136.024C47.464 138.088 44.68 139.672 41.464 140.776C38.248 141.88 34.864 142.432 31.312 142.432C26.272 142.432 21.736 141.328 17.704 139.12C13.672 136.912 10.504 133.864 8.2 129.976C5.896 126.04 4.744 121.648 4.744 116.8C4.744 111.952 5.896 107.584 8.2 103.696C10.504 99.76 13.672 96.688 17.704 94.48C21.736 92.272 26.296 91.168 31.384 91.168C35.224 91.168 38.752 91.792 41.968 93.04C45.184 94.24 47.896 96.04 50.104 98.44L46.792 101.824C42.808 97.888 37.744 95.92 31.6 95.92C27.52 95.92 23.824 96.832 20.512 98.656C17.248 100.432 14.68 102.928 12.808 106.144C10.936 109.312 10 112.864 10 116.8C10 120.736 10.936 124.288 12.808 127.456C14.68 130.624 17.248 133.12 20.512 134.944C23.776 136.768 27.448 137.68 31.528 137.68C36.712 137.68 41.104 136.384 44.704 133.792V116.8ZM96.7915 124.648H65.1115C65.3995 128.584 66.9115 131.776 69.6475 134.224C72.3835 136.624 75.8395 137.824 80.0155 137.824C82.3675 137.824 84.5275 137.416 86.4955 136.6C88.4635 135.736 90.1675 134.488 91.6075 132.856L94.4875 136.168C92.8075 138.184 90.6955 139.72 88.1515 140.776C85.6555 141.832 82.8955 142.36 79.8715 142.36C75.9835 142.36 72.5275 141.544 69.5035 139.912C66.5275 138.232 64.1995 135.928 62.5195 133C60.8395 130.072 59.9995 126.76 59.9995 123.064C59.9995 119.368 60.7915 116.056 62.3755 113.128C64.0075 110.2 66.2155 107.92 68.9995 106.288C71.8315 104.656 74.9995 103.84 78.5035 103.84C82.0075 103.84 85.1515 104.656 87.9355 106.288C90.7195 107.92 92.9035 110.2 94.4875 113.128C96.0715 116.008 96.8635 119.32 96.8635 123.064L96.7915 124.648ZM78.5035 108.232C74.8555 108.232 71.7835 109.408 69.2875 111.76C66.8395 114.064 65.4475 117.088 65.1115 120.832H91.9675C91.6315 117.088 90.2155 114.064 87.7195 111.76C85.2715 109.408 82.1995 108.232 78.5035 108.232ZM122.749 142.36C119.101 142.36 115.813 141.544 112.885 139.912C109.957 138.232 107.653 135.928 105.973 133C104.293 130.072 103.453 126.76 103.453 123.064C103.453 119.368 104.293 116.056 105.973 113.128C107.653 110.2 109.957 107.92 112.885 106.288C115.813 104.656 119.101 103.84 122.749 103.84C126.397 103.84 129.685 104.656 132.613 106.288C135.541 107.92 137.821 110.2 139.453 113.128C141.133 116.056 141.973 119.368 141.973 123.064C141.973 126.76 141.133 130.072 139.453 133C137.821 135.928 135.541 138.232 132.613 139.912C129.685 141.544 126.397 142.36 122.749 142.36ZM122.749 137.824C125.437 137.824 127.837 137.224 129.949 136.024C132.109 134.776 133.789 133.024 134.989 130.768C136.189 128.512 136.789 125.944 136.789 123.064C136.789 120.184 136.189 117.616 134.989 115.36C133.789 113.104 132.109 111.376 129.949 110.176C127.837 108.928 125.437 108.304 122.749 108.304C120.061 108.304 117.637 108.928 115.477 110.176C113.365 111.376 111.685 113.104 110.437 115.36C109.237 117.616 108.637 120.184 108.637 123.064C108.637 125.944 109.237 128.512 110.437 130.768C111.685 133.024 113.365 134.776 115.477 136.024C117.637 137.224 120.061 137.824 122.749 137.824ZM164.937 92.536C162.729 92.536 161.049 93.136 159.897 94.336C158.793 95.536 158.241 97.312 158.241 99.664V104.128H169.905V108.448H158.385V142H153.273V108.448H146.505V104.128H153.273V99.448C153.273 95.992 154.257 93.256 156.225 91.24C158.241 89.224 161.073 88.216 164.721 88.216C166.161 88.216 167.553 88.432 168.897 88.864C170.241 89.248 171.369 89.824 172.281 90.592L170.553 94.408C169.065 93.16 167.193 92.536 164.937 92.536ZM189.336 92.536C187.128 92.536 185.448 93.136 184.296 94.336C183.192 95.536 182.64 97.312 182.64 99.664V104.128H194.304V108.448H182.784V142H177.672V108.448H170.904V104.128H177.672V99.448C177.672 95.992 178.656 93.256 180.624 91.24C182.64 89.224 185.472 88.216 189.12 88.216C190.56 88.216 191.952 88.432 193.296 88.864C194.64 89.248 195.768 89.824 196.68 90.592L194.952 94.408C193.464 93.16 191.592 92.536 189.336 92.536ZM211.868 111.544C213.068 109 214.844 107.08 217.196 105.784C219.596 104.488 222.548 103.84 226.052 103.84V108.808L224.828 108.736C220.844 108.736 217.724 109.96 215.468 112.408C213.212 114.856 212.084 118.288 212.084 122.704V142H206.972V104.128H211.868V111.544ZM267.932 124.648H236.252C236.54 128.584 238.052 131.776 240.788 134.224C243.524 136.624 246.98 137.824 251.156 137.824C253.508 137.824 255.668 137.416 257.636 136.6C259.604 135.736 261.308 134.488 262.748 132.856L265.628 136.168C263.948 138.184 261.836 139.72 259.292 140.776C256.796 141.832 254.036 142.36 251.012 142.36C247.124 142.36 243.668 141.544 240.644 139.912C237.668 138.232 235.34 135.928 233.66 133C231.98 130.072 231.14 126.76 231.14 123.064C231.14 119.368 231.932 116.056 233.516 113.128C235.148 110.2 237.356 107.92 240.14 106.288C242.972 104.656 246.14 103.84 249.644 103.84C253.148 103.84 256.292 104.656 259.076 106.288C261.86 107.92 264.044 110.2 265.628 113.128C267.212 116.008 268.004 119.32 268.004 123.064L267.932 124.648ZM249.644 108.232C245.996 108.232 242.924 109.408 240.428 111.76C237.98 114.064 236.588 117.088 236.252 120.832H263.108C262.772 117.088 261.356 114.064 258.86 111.76C256.412 109.408 253.34 108.232 249.644 108.232ZM309.53 104.128L290.594 146.536C289.058 150.088 287.282 152.608 285.266 154.096C283.25 155.584 280.826 156.328 277.994 156.328C276.17 156.328 274.466 156.04 272.882 155.464C271.298 154.888 269.93 154.024 268.778 152.872L271.154 149.056C273.074 150.976 275.378 151.936 278.066 151.936C279.794 151.936 281.258 151.456 282.458 150.496C283.706 149.536 284.858 147.904 285.914 145.6L287.57 141.928L270.65 104.128H275.978L290.234 136.312L304.49 104.128H309.53ZM336.653 91.6H341.981V137.392H370.205V142H336.653V91.6ZM391.36 103.84C396.304 103.84 400.096 105.088 402.736 107.584C405.376 110.032 406.696 113.68 406.696 118.528V142H401.8V136.096C400.648 138.064 398.944 139.6 396.688 140.704C394.48 141.808 391.84 142.36 388.768 142.36C384.544 142.36 381.184 141.352 378.688 139.336C376.192 137.32 374.944 134.656 374.944 131.344C374.944 128.128 376.096 125.536 378.4 123.568C380.752 121.6 384.472 120.616 389.56 120.616H401.584V118.312C401.584 115.048 400.672 112.576 398.848 110.896C397.024 109.168 394.36 108.304 390.856 108.304C388.456 108.304 386.152 108.712 383.944 109.528C381.736 110.296 379.84 111.376 378.256 112.768L375.952 108.952C377.872 107.32 380.176 106.072 382.864 105.208C385.552 104.296 388.384 103.84 391.36 103.84ZM389.56 138.328C392.44 138.328 394.912 137.68 396.976 136.384C399.04 135.04 400.576 133.12 401.584 130.624V124.432H389.704C383.224 124.432 379.984 126.688 379.984 131.2C379.984 133.408 380.824 135.16 382.504 136.456C384.184 137.704 386.536 138.328 389.56 138.328ZM447.293 137.752V142H416.477V138.616L440.309 108.448H416.909V104.128H446.861V107.512L423.029 137.752H447.293ZM489.698 124.648H458.018C458.306 128.584 459.818 131.776 462.554 134.224C465.29 136.624 468.746 137.824 472.922 137.824C475.274 137.824 477.434 137.416 479.402 136.6C481.37 135.736 483.074 134.488 484.514 132.856L487.394 136.168C485.714 138.184 483.602 139.72 481.058 140.776C478.562 141.832 475.802 142.36 472.778 142.36C468.89 142.36 465.434 141.544 462.41 139.912C459.434 138.232 457.106 135.928 455.426 133C453.746 130.072 452.906 126.76 452.906 123.064C452.906 119.368 453.698 116.056 455.282 113.128C456.914 110.2 459.122 107.92 461.906 106.288C464.738 104.656 467.906 103.84 471.41 103.84C474.914 103.84 478.058 104.656 480.842 106.288C483.626 107.92 485.81 110.2 487.394 113.128C488.978 116.008 489.77 119.32 489.77 123.064L489.698 124.648ZM471.41 108.232C467.762 108.232 464.69 109.408 462.194 111.76C459.746 114.064 458.354 117.088 458.018 120.832H484.874C484.538 117.088 483.122 114.064 480.626 111.76C478.178 109.408 475.106 108.232 471.41 108.232ZM505.071 111.544C506.271 109 508.047 107.08 510.399 105.784C512.799 104.488 515.751 103.84 519.255 103.84V108.808L518.031 108.736C514.047 108.736 510.927 109.96 508.671 112.408C506.415 114.856 505.287 118.288 505.287 122.704V142H500.175V104.128H505.071V111.544ZM528.874 142.36C527.818 142.36 526.906 141.976 526.138 141.208C525.418 140.44 525.058 139.504 525.058 138.4C525.058 137.296 525.418 136.384 526.138 135.664C526.906 134.896 527.818 134.512 528.874 134.512C529.93 134.512 530.842 134.896 531.61 135.664C532.378 136.384 532.762 137.296 532.762 138.4C532.762 139.504 532.378 140.44 531.61 141.208C530.842 141.976 529.93 142.36 528.874 142.36Z" fill="white"/>
</g>
<defs>
<filter id="filter0_d_3_4" x="0.744019" y="0.215942" width="536.018" height="164.112" filterUnits="userSpaceOnUse" color-interpolation-filters="sRGB">
<feFlood flood-opacity="0" result="BackgroundImageFix"/>
<feColorMatrix in="SourceAlpha" type="matrix" values="0 0 0 0 0 0 0 0 0 0 0 0 0 0 0 0 0 0 127 0" result="hardAlpha"/>
<feOffset dy="4"/>
<feGaussianBlur stdDeviation="2"/>
<feComposite in2="hardAlpha" operator="out"/>
<feColorMatrix type="matrix" values="0 0 0 0 0 0 0 0 0 0 0 0 0 0 0 0 0 0 0.25 0"/>
<feBlend mode="normal" in2="BackgroundImageFix" result="effect1_dropShadow_3_4"/>
<feBlend mode="normal" in="SourceGraphic" in2="effect1_dropShadow_3_4" result="shape"/>
</filter>
</defs>
</svg>
